STARTFONT 2.3
FONT -FontForge-Righteous-Book-R-Normal--18-180-72-72-P-96-ISO10646-1
SIZE 18 72 72  2
FONTBOUNDINGBOX 23 23 -3 -5
COMMENT "Generated by fontforge, http://fontforge.sourceforge.net"
COMMENT "Copyright (c) 2011 by Brian J. Bonislawsky DBA Astigmatic (AOETI) (astigma@astigmatic.com), with ReservedFont Name "Righteous""
STARTPROPERTIES 40
FOUNDRY "FontForge"
FAMILY_NAME "Righteous"
WEIGHT_NAME "Book"
SLANT "R"
SETWIDTH_NAME "Normal"
ADD_STYLE_NAME ""
PIXEL_SIZE 18
POINT_SIZE 180
RESOLUTION_X 72
RESOLUTION_Y 72
SPACING "P"
AVERAGE_WIDTH 96
CHARSET_REGISTRY "ISO10646"
CHARSET_ENCODING "1"
FONTNAME_REGISTRY ""
CHARSET_COLLECTIONS "ISO8859-2 ISO8859-9 ISO8859-4 ISO10646-1"
BITS_PER_PIXEL 2
FONT_NAME "Righteous-Regular"
FACE_NAME "Righteous"
COPYRIGHT "Copyright (c) 2011 by Brian J. Bonislawsky DBA Astigmatic (AOETI) (astigma@astigmatic.com), with ReservedFont Name "Righteous""
FONT_VERSION "1.000"
FONT_ASCENT 14
FONT_DESCENT 4
UNDERLINE_POSITION -2
UNDERLINE_THICKNESS 1
X_HEIGHT 9
CAP_HEIGHT 12
RAW_ASCENT 799
RAW_DESCENT 200
NORM_SPACE 5
RELATIVE_WEIGHT 40
RELATIVE_SETWIDTH 50
SUPERSCRIPT_X 0
SUPERSCRIPT_Y 8
SUPERSCRIPT_SIZE 11
SUBSCRIPT_X 0
SUBSCRIPT_Y 2
SUBSCRIPT_SIZE 11
AVG_LOWERCASE_WIDTH 94
AVG_UPPERCASE_WIDTH 114
ENDPROPERTIES
CHARS 372
STARTCHAR space
ENCODING 32
SWIDTH 279 0
DWIDTH 5 0
BBX 1 1 0 0
BITMAP
00
ENDCHAR
STARTCHAR exclam
ENCODING 33
SWIDTH 274 0
DWIDTH 5 0
BBX 3 14 1 -1
BITMAP
A8
FC
FC
F8
B8
B8
B8
B8
B8
74
10
F8
FC
64
ENDCHAR
STARTCHAR quotedbl
ENCODING 34
SWIDTH 409 0
DWIDTH 7 0
BBX 6 5 1 8
BITMAP
A690
F7D0
F7D0
F2D0
5140
ENDCHAR
STARTCHAR numbersign
ENCODING 35
SWIDTH 561 0
DWIDTH 10 0
BBX 10 9 0 2
BITMAP
015140
02D780
0BEF90
1FFFD0
0B9E00
1FAE40
7FFF40
2E7D00
2D7800
ENDCHAR
STARTCHAR dollar
ENCODING 36
SWIDTH 458 0
DWIDTH 8 0
BBX 8 13 0 0
BITMAP
0180
02C0
02D4
1FFC
3EA8
3D50
2FFC
06AD
2AAD
7FF8
16D0
02C0
02C0
ENDCHAR
STARTCHAR percent
ENCODING 37
SWIDTH 685 0
DWIDTH 12 0
BBX 12 13 0 0
BITMAP
1A4064
3FD0F0
74E1D0
74E3C0
79EB40
2FDE00
066D00
007AF8
00B7AD
01E74E
03C74E
0783AD
0F02F8
ENDCHAR
STARTCHAR ampersand
ENCODING 38
SWIDTH 485 0
DWIDTH 9 0
BBX 7 13 1 0
BITMAP
0240
0380
2FF8
BFF8
F000
B540
7FD0
BE80
F000
B954
7FF8
07E4
0380
ENDCHAR
STARTCHAR quotesingle
ENCODING 39
SWIDTH 238 0
DWIDTH 4 0
BBX 3 5 1 8
BITMAP
A4
F4
F4
F0
50
ENDCHAR
STARTCHAR parenleft
ENCODING 40
SWIDTH 351 0
DWIDTH 6 0
BBX 6 17 0 -2
BITMAP
0150
07D0
0F80
1F40
2F00
3E00
7D00
7D00
7D00
7D00
7D00
3E00
2F00
1F40
0F80
07D0
02A0
ENDCHAR
STARTCHAR parenright
ENCODING 41
SWIDTH 351 0
DWIDTH 6 0
BBX 6 17 0 -2
BITMAP
5400
7E00
2F40
0F80
0BC0
07D0
03E0
03E0
03E0
03E0
03D0
07D0
0BC0
0F80
1F40
3E00
6800
ENDCHAR
STARTCHAR asterisk
ENCODING 42
SWIDTH 589 0
DWIDTH 11 0
BBX 9 10 1 5
BITMAP
03E000
03E000
A7E740
FFFF80
7FFE40
0FF400
1FFC00
7F7F00
2D2D00
040400
ENDCHAR
STARTCHAR plus
ENCODING 43
SWIDTH 485 0
DWIDTH 9 0
BBX 8 8 0 2
BITMAP
02E0
02E0
6BEA
7FFF
6BFA
02E0
02E0
0140
ENDCHAR
STARTCHAR comma
ENCODING 44
SWIDTH 264 0
DWIDTH 5 0
BBX 3 5 1 -2
BITMAP
10
F8
FC
78
74
ENDCHAR
STARTCHAR hyphen
ENCODING 45
SWIDTH 528 0
DWIDTH 10 0
BBX 8 3 1 5
BITMAP
AAA9
FFFD
AAA9
ENDCHAR
STARTCHAR period
ENCODING 46
SWIDTH 263 0
DWIDTH 5 0
BBX 3 4 1 -1
BITMAP
10
F8
F8
60
ENDCHAR
STARTCHAR slash
ENCODING 47
SWIDTH 490 0
DWIDTH 9 0
BBX 8 13 0 0
BITMAP
001A
002F
003D
00BC
00F8
01F4
02E0
07D0
0BC0
0F80
1F00
3E00
7D00
ENDCHAR
STARTCHAR zero
ENCODING 48
SWIDTH 642 0
DWIDTH 12 0
BBX 11 13 0 0
BITMAP
01A900
0BFFD0
1FEBF0
2F01F4
3D00F8
7D00B8
7D00B8
7D00B8
3D00B8
3E00F4
2F96F0
0FFFD0
02FF40
ENDCHAR
STARTCHAR one
ENCODING 49
SWIDTH 317 0
DWIDTH 6 0
BBX 5 13 0 0
BITMAP
6A40
7F40
7F40
0F40
0F40
0F40
0F40
0F40
0F40
0F40
0F40
0F40
0F40
ENDCHAR
STARTCHAR two
ENCODING 50
SWIDTH 570 0
DWIDTH 10 0
BBX 10 13 0 0
BITMAP
1AA800
2FFF40
2FFFC0
0007E0
0003E0
01ABD0
0FFF80
2FFE00
3E0000
7D0000
7EAA80
7FFFD0
7FFFD0
ENDCHAR
STARTCHAR three
ENCODING 51
SWIDTH 586 0
DWIDTH 11 0
BBX 9 13 1 0
BITMAP
AAA400
FFFD00
FFFF40
000F80
000F80
1AAF40
2FFF00
1FFF40
001F80
000F80
AAAF40
FFFE00
FFF800
ENDCHAR
STARTCHAR four
ENCODING 52
SWIDTH 630 0
DWIDTH 11 0
BBX 11 13 0 0
BITMAP
0A4000
1F4140
1F07D0
2F07D0
2F07D0
2E07D0
3E07D0
3D07D0
7FFFF8
7FFFF8
555BE4
0007D0
0007D0
ENDCHAR
STARTCHAR five
ENCODING 53
SWIDTH 585 0
DWIDTH 11 0
BBX 9 13 1 0
BITMAP
6AAA40
7FFF40
BFFF40
B80000
B80000
FFF800
FFFF00
AAAF80
000BC0
000BC0
AAAF80
FFFF00
FFF800
ENDCHAR
STARTCHAR six
ENCODING 54
SWIDTH 615 0
DWIDTH 11 0
BBX 11 14 0 -1
BITMAP
00A800
02F400
0BD000
1F9400
2FFF80
3FFFE0
3F42F0
7E01F4
7D00F4
7E01F4
2F97F0
1FFFD0
07FF40
005400
ENDCHAR
STARTCHAR seven
ENCODING 55
SWIDTH 516 0
DWIDTH 9 0
BBX 9 13 0 0
BITMAP
6AAA80
BFFFC0
BFFF80
001F40
002F00
003E00
007C00
00B800
00F400
02F000
03E000
07D000
0BC000
ENDCHAR
STARTCHAR eight
ENCODING 56
SWIDTH 618 0
DWIDTH 11 0
BBX 11 14 0 -1
BITMAP
01FE00
0BFFC0
1F9BE0
2F02E0
1F03E0
0FEFD0
0BFFC0
2F9BF0
7D01F4
7D00F4
3E02F4
2FEFE0
07FF80
005400
ENDCHAR
STARTCHAR nine
ENCODING 57
SWIDTH 616 0
DWIDTH 11 0
BBX 11 13 0 0
BITMAP
02F900
0FFF80
2FAFE0
3E02F0
7D01F4
7D01F4
7E02F4
2FAFF0
0FFFE0
02ABD0
000FC0
002F40
00BD00
ENDCHAR
STARTCHAR colon
ENCODING 58
SWIDTH 276 0
DWIDTH 5 0
BBX 3 9 1 -1
BITMAP
10
B8
FC
64
00
10
B8
FC
64
ENDCHAR
STARTCHAR semicolon
ENCODING 59
SWIDTH 276 0
DWIDTH 5 0
BBX 3 10 1 -2
BITMAP
10
B8
FC
64
00
10
B8
FC
78
34
ENDCHAR
STARTCHAR less
ENCODING 60
SWIDTH 478 0
DWIDTH 9 0
BBX 8 10 0 2
BITMAP
0028
00BD
02F8
0BE0
2F80
7F80
1FE0
07F8
00FD
0038
ENDCHAR
STARTCHAR equal
ENCODING 61
SWIDTH 539 0
DWIDTH 10 0
BBX 8 7 1 3
BITMAP
5555
FFFE
FFFE
0000
AAA9
FFFE
AAA9
ENDCHAR
STARTCHAR greater
ENCODING 62
SWIDTH 478 0
DWIDTH 9 0
BBX 7 10 1 2
BITMAP
3800
FD00
7F40
1FD0
07F4
03F8
0FE0
7F80
FE00
7800
ENDCHAR
STARTCHAR question
ENCODING 63
SWIDTH 603 0
DWIDTH 11 0
BBX 11 14 0 -1
BITMAP
6AA900
7FFFC0
7FFFE0
0002F0
0001F4
001BF0
00FFD0
02FE40
03E000
03D000
014000
07D000
07E000
018000
ENDCHAR
STARTCHAR at
ENCODING 64
SWIDTH 629 0
DWIDTH 11 0
BBX 11 11 0 -1
BITMAP
01A900
0BFFC0
1E42F0
3CBFB4
79EF38
76CB38
39FFF8
2D6AA0
0F9400
02FC00
001400
ENDCHAR
STARTCHAR A
ENCODING 65
SWIDTH 673 0
DWIDTH 12 0
BBX 10 13 1 0
BITMAP
01A400
1FFF40
3FFFC0
BE07E0
F802F0
F801F0
F801F0
F801F0
FFFFF0
FFFFF0
F956F0
F801F0
F801F0
ENDCHAR
STARTCHAR B
ENCODING 66
SWIDTH 666 0
DWIDTH 12 0
BBX 11 13 1 0
BITMAP
AAA900
BFFFC0
BFFFE0
B802F0
B801F4
BEABF0
BFFFD0
BFFFE0
B802F0
B801F4
BEABF0
BFFFD0
BFFF40
ENDCHAR
STARTCHAR C
ENCODING 67
SWIDTH 640 0
DWIDTH 12 0
BBX 11 14 0 -1
BITMAP
006A90
02FFF8
0FFAF8
2F8024
3E0000
7D0000
7C0000
7C0000
7D0000
3F4010
1FE5B4
07FFFC
01BFE4
000500
ENDCHAR
STARTCHAR D
ENCODING 68
SWIDTH 653 0
DWIDTH 12 0
BBX 11 13 1 0
BITMAP
AA9000
BFFD00
BFFF80
B81FD0
B803E0
B801F0
B801F4
B801F0
B802F0
B80BE0
BEBFC0
BFFE00
BFE400
ENDCHAR
STARTCHAR E
ENCODING 69
SWIDTH 578 0
DWIDTH 10 0
BBX 9 13 1 0
BITMAP
AAAA40
BFFF80
BFFF80
B80000
B80000
BEA400
BFF800
BFF800
B80000
B80000
BEAA40
BFFF80
BFFF80
ENDCHAR
STARTCHAR F
ENCODING 70
SWIDTH 562 0
DWIDTH 10 0
BBX 9 13 1 0
BITMAP
AAAA80
BFFFC0
BFFFC0
B80000
B80000
BEA400
BFF400
BFF400
B80000
B80000
B80000
B80000
B80000
ENDCHAR
STARTCHAR G
ENCODING 71
SWIDTH 665 0
DWIDTH 12 0
BBX 12 14 0 -1
BITMAP
006A90
02FFF8
0BFAF8
2F8024
3E0000
7D0000
7C0014
7C007D
7D007D
3F407D
1FE5BD
07FFFC
01BFE4
000500
ENDCHAR
STARTCHAR H
ENCODING 72
SWIDTH 689 0
DWIDTH 12 0
BBX 11 13 1 0
BITMAP
A400A0
B801F4
B801F4
B801F4
B801F4
BEAAF4
BFFFF4
BFFFF4
B801F4
B801F4
B801F4
B801F4
B801F4
ENDCHAR
STARTCHAR I
ENCODING 73
SWIDTH 270 0
DWIDTH 5 0
BBX 3 13 1 0
BITMAP
A4
B8
B8
B8
B8
B8
B8
B8
B8
B8
B8
B8
B8
ENDCHAR
STARTCHAR J
ENCODING 74
SWIDTH 416 0
DWIDTH 8 0
BBX 7 13 0 0
BITMAP
00A4
00F4
00F4
00F4
00F4
00F4
00F4
00F4
00F4
02F4
ABE0
BFC0
BE00
ENDCHAR
STARTCHAR K
ENCODING 75
SWIDTH 625 0
DWIDTH 11 0
BBX 10 13 1 0
BITMAP
A402A0
B807D0
B81F80
B83F00
B8BD00
B9F400
BFF800
BFFD00
BF7E00
BD2F40
B80FC0
B807D0
B803F0
ENDCHAR
STARTCHAR L
ENCODING 76
SWIDTH 562 0
DWIDTH 10 0
BBX 9 13 1 0
BITMAP
A40000
B80000
B80000
B80000
B80000
B80000
B80000
B80000
B80000
B80000
BEAA80
BFFFC0
BFFFC0
ENDCHAR
STARTCHAR M
ENCODING 77
SWIDTH 819 0
DWIDTH 15 0
BBX 13 13 1 0
BITMAP
0691A400
3FFFFE00
BFFFFF40
F83E0F80
F83E0F80
F83E0F80
F83E0F80
F83E0F80
F83E0F80
F83E0F80
F83E0F80
F83E0F80
F83E0F80
ENDCHAR
STARTCHAR N
ENCODING 78
SWIDTH 689 0
DWIDTH 12 0
BBX 11 13 1 0
BITMAP
A800A0
BE01F4
BF01F4
BF81F4
BFD1F4
BAF1F4
B9F5F4
B8BDF4
B83FF4
B82FF4
B80FF4
B807F4
B802F4
ENDCHAR
STARTCHAR O
ENCODING 79
SWIDTH 777 0
DWIDTH 14 0
BBX 14 14 0 -1
BITMAP
006A9000
02FFF800
0BFAFE00
2F802F80
3E000BC0
7D0007D0
7C0003D0
7C0003D0
7D0007D0
3F401FC0
1FE5BF40
07FFFD00
01BFE400
00050000
ENDCHAR
STARTCHAR P
ENCODING 80
SWIDTH 642 0
DWIDTH 12 0
BBX 11 13 1 0
BITMAP
AAA400
BFFF40
BFFFD0
B807E0
B802F0
B801F4
B802F0
B807E0
BFFFD0
BFFF40
BD5400
B80000
B80000
ENDCHAR
STARTCHAR Q
ENCODING 81
SWIDTH 777 0
DWIDTH 14 0
BBX 14 16 0 -3
BITMAP
006A9000
02FFF800
0BFAFE00
2F802F80
3E000BC0
7D0007D0
7C0003D0
7C0003D0
7D0007D0
3F401F80
1FE5BF40
07FFFD00
01BFF400
0005F400
0000BD00
00002900
ENDCHAR
STARTCHAR R
ENCODING 82
SWIDTH 651 0
DWIDTH 12 0
BBX 11 13 1 0
BITMAP
AAA400
BFFF40
BFFFD0
B807E0
B802F0
B801F4
B802F0
B807E0
BFFFD0
BFFF40
BD6F40
B80F80
B80BC0
ENDCHAR
STARTCHAR S
ENCODING 83
SWIDTH 610 0
DWIDTH 11 0
BBX 11 13 0 0
BITMAP
02AAA0
1FFFF0
3FFFF0
7D0000
BC0000
7EA900
2FFFD0
07FFF0
0001F4
0000F4
1AAAF4
3FFFE0
3FFF40
ENDCHAR
STARTCHAR T
ENCODING 84
SWIDTH 578 0
DWIDTH 10 0
BBX 11 13 0 0
BITMAP
AAAAA0
FFFFF4
BFFFF4
00F400
00F400
00F400
00F400
00F400
00F400
00F400
00F400
00F400
00F400
ENDCHAR
STARTCHAR U
ENCODING 85
SWIDTH 673 0
DWIDTH 12 0
BBX 10 13 1 0
BITMAP
A401A0
F801F0
F801F0
F801F0
F801F0
F801F0
F801F0
F801F0
F802F0
BD03F0
7FAFD0
1FFF80
06F900
ENDCHAR
STARTCHAR V
ENCODING 86
SWIDTH 602 0
DWIDTH 11 0
BBX 11 13 0 0
BITMAP
A800A4
BD01F4
7E02F0
3E03E0
2F07D0
1F4BC0
0F8F80
0BDF40
07EF00
03FE00
02FD00
01FC00
00F800
ENDCHAR
STARTCHAR W
ENCODING 87
SWIDTH 819 0
DWIDTH 15 0
BBX 13 13 1 0
BITMAP
A4290A40
F83E0F80
F83E0F80
F83E0F80
F83E0F80
F83E0F80
F83E0F80
F83E0F80
F83E0F80
F83E0F80
BDBF6F40
7FFFFF00
1FE7F800
ENDCHAR
STARTCHAR X
ENCODING 88
SWIDTH 608 0
DWIDTH 11 0
BBX 11 13 0 0
BITMAP
6801A4
7E02F4
2F47E0
0FCFC0
07FF40
03FE00
01FD00
02FE00
07FF40
0BDF80
1F8BD0
3F03F0
BD01F8
ENDCHAR
STARTCHAR Y
ENCODING 89
SWIDTH 620 0
DWIDTH 11 0
BBX 11 13 0 0
BITMAP
6800A4
7C00F8
7C00F8
7C00F8
7C00F8
7D01F4
2F9BF0
1FFFD0
06FE40
00BC00
00BC00
00BC00
00BC00
ENDCHAR
STARTCHAR Z
ENCODING 90
SWIDTH 586 0
DWIDTH 11 0
BBX 11 13 0 0
BITMAP
6AAAA0
BFFFE0
BFFFC0
002F80
003F00
00BD00
00FC00
02F400
07F000
0BD000
1FEAA0
2FFFF4
7FFFF4
ENDCHAR
STARTCHAR bracketleft
ENCODING 91
SWIDTH 380 0
DWIDTH 7 0
BBX 6 17 1 -2
BITMAP
5540
FFD0
FFD0
F800
F800
F800
F800
F800
F800
F800
F800
F800
F800
F800
FE80
FFD0
AA80
ENDCHAR
STARTCHAR backslash
ENCODING 92
SWIDTH 490 0
DWIDTH 9 0
BBX 8 13 0 0
BITMAP
6800
3E00
2F00
1F40
0B80
07D0
03E0
02F0
00F4
00BC
007D
003E
001F
ENDCHAR
STARTCHAR bracketright
ENCODING 93
SWIDTH 380 0
DWIDTH 7 0
BBX 6 17 0 -2
BITMAP
1550
7FE0
7FE0
03E0
02E0
02E0
02E0
02E0
02E0
02E0
02E0
02E0
02E0
02E0
6BE0
7FE0
6AA0
ENDCHAR
STARTCHAR asciicircum
ENCODING 94
SWIDTH 293 0
DWIDTH 5 0
BBX 5 4 0 9
BITMAP
0400
2E00
BF80
6280
ENDCHAR
STARTCHAR underscore
ENCODING 95
SWIDTH 598 0
DWIDTH 11 0
BBX 8 4 1 -5
BITMAP
1555
7FFF
7FFF
1555
ENDCHAR
STARTCHAR grave
ENCODING 96
SWIDTH 225 0
DWIDTH 4 0
BBX 4 4 0 9
BITMAP
10
78
BE
1A
ENDCHAR
STARTCHAR a
ENCODING 97
SWIDTH 607 0
DWIDTH 11 0
BBX 10 10 0 0
BITMAP
01A810
0FFFB0
2FAFF0
7D07F0
BC02F0
BC01F0
7D02F0
3F5BF0
1FFFF0
07FD30
ENDCHAR
STARTCHAR b
ENCODING 98
SWIDTH 597 0
DWIDTH 11 0
BBX 11 13 0 0
BITMAP
7C0000
7C0000
7C0000
7DA900
7FFF80
7FEFE0
7E02F0
7D01F4
7D00F4
3E01F0
2F9BE0
0FFFD0
02FE40
ENDCHAR
STARTCHAR c
ENCODING 99
SWIDTH 521 0
DWIDTH 9 0
BBX 9 10 0 0
BITMAP
01A800
0BFF40
2FAFC0
7E0340
BC0000
BC0000
7C0100
3F5B40
1FFF80
07FE00
ENDCHAR
STARTCHAR d
ENCODING 100
SWIDTH 606 0
DWIDTH 11 0
BBX 10 13 0 0
BITMAP
0001F0
0001F0
0001F0
01A9F0
0FFFF0
2FAFF0
7D07F0
BC02F0
BC01F0
7D02F0
3F5BF0
1FFFF0
07FD30
ENDCHAR
STARTCHAR e
ENCODING 101
SWIDTH 524 0
DWIDTH 9 0
BBX 9 10 0 0
BITMAP
01A900
0FFF40
2FAFC0
7D2F40
BC7D00
BDF400
7FE100
3FDB80
1FFF80
07FE00
ENDCHAR
STARTCHAR f
ENCODING 102
SWIDTH 395 0
DWIDTH 7 0
BBX 8 14 0 0
BITMAP
01BE
07FE
0FD5
1F00
6F54
BFFC
BFFC
1F00
1F00
1F00
1F00
1F00
1F00
1F00
ENDCHAR
STARTCHAR g
ENCODING 103
SWIDTH 607 0
DWIDTH 11 0
BBX 10 14 0 -4
BITMAP
01A810
0FFFB0
2FAFF0
7D07F0
BC02F0
BC01F0
7D02F0
3F5BF0
1FFFF0
07FFF0
0007E0
00BFD0
00FF40
00A400
ENDCHAR
STARTCHAR h
ENCODING 104
SWIDTH 562 0
DWIDTH 10 0
BBX 9 13 1 0
BITMAP
F40000
F40000
F40000
F59000
FFF800
FFFE00
F82F00
F40F40
F40F40
F40F40
F40F40
F40F40
F40F40
ENDCHAR
STARTCHAR i
ENCODING 105
SWIDTH 235 0
DWIDTH 4 0
BBX 4 14 0 0
BITMAP
14
7E
7E
18
14
3D
3D
3D
3D
3D
3D
3D
3D
3D
ENDCHAR
STARTCHAR j
ENCODING 106
SWIDTH 237 0
DWIDTH 4 0
BBX 7 18 -3 -4
BITMAP
0050
01F8
01F8
0060
0050
00F4
00F4
00F4
00F4
00F4
00F4
00F4
00F4
01F4
02F0
AFD0
BF80
6400
ENDCHAR
STARTCHAR k
ENCODING 107
SWIDTH 539 0
DWIDTH 10 0
BBX 9 13 1 0
BITMAP
F40000
F40000
F40000
F40540
F42F00
F4BD00
F5F400
FBE000
FFF000
FFF800
FD7D00
F83E00
F41F40
ENDCHAR
STARTCHAR l
ENCODING 108
SWIDTH 235 0
DWIDTH 4 0
BBX 3 13 1 0
BITMAP
F4
F4
F4
F4
F4
F4
F4
F4
F4
F4
F4
F4
F4
ENDCHAR
STARTCHAR m
ENCODING 109
SWIDTH 762 0
DWIDTH 14 0
BBX 12 10 1 0
BITMAP
464190
FFEFF8
FFFFFD
F47D2E
F47C2F
F47C2F
F47C2F
F47C2F
F47C2F
F47C2F
ENDCHAR
STARTCHAR n
ENCODING 110
SWIDTH 562 0
DWIDTH 10 0
BBX 9 10 1 0
BITMAP
469000
EFF800
FFFE00
F82F00
F40F40
F40F40
F40F40
F40F40
F40F40
F40F40
ENDCHAR
STARTCHAR o
ENCODING 111
SWIDTH 579 0
DWIDTH 10 0
BBX 10 10 0 0
BITMAP
01A900
0FFF40
2FAFD0
7D03E0
BC02F0
BC01F0
7D02E0
3F5BD0
1FFF80
07FE00
ENDCHAR
STARTCHAR p
ENCODING 112
SWIDTH 608 0
DWIDTH 11 0
BBX 10 14 1 -4
BITMAP
42A400
EFFF00
FFAF80
FC0BD0
F403D0
F403E0
F807D0
FE5FC0
FFFF40
FBFD00
F44000
F40000
F40000
A40000
ENDCHAR
STARTCHAR q
ENCODING 113
SWIDTH 607 0
DWIDTH 11 0
BBX 10 14 0 -4
BITMAP
01A410
0FFFB0
2FAFF0
7D07F0
BC02F0
BC01F0
7D02F0
3F5BF0
1FFFF0
07FEF0
0011F0
0001F0
0001F0
0001A0
ENDCHAR
STARTCHAR r
ENCODING 114
SWIDTH 414 0
DWIDTH 7 0
BBX 7 10 1 0
BITMAP
4150
EFF4
FFF4
FD00
F400
F400
F400
F400
F400
F400
ENDCHAR
STARTCHAR s
ENCODING 115
SWIDTH 523 0
DWIDTH 9 0
BBX 9 10 0 0
BITMAP
015540
1FFF40
3FFF40
7C0000
7FA900
2FFF80
06ABC0
155BC0
7FFF80
7FFE00
ENDCHAR
STARTCHAR t
ENCODING 116
SWIDTH 437 0
DWIDTH 8 0
BBX 8 13 0 0
BITMAP
2E00
2E00
2E00
6F55
BFFD
BFFD
2E00
2E00
2E00
1F00
1F95
0BFD
01BD
ENDCHAR
STARTCHAR u
ENCODING 117
SWIDTH 562 0
DWIDTH 10 0
BBX 10 10 0 0
BITMAP
140140
7D07D0
7D07D0
7D07D0
7D07D0
7D07D0
3D07D0
3F5FD0
1FFFD0
07F990
ENDCHAR
STARTCHAR v
ENCODING 118
SWIDTH 532 0
DWIDTH 10 0
BBX 10 10 0 0
BITMAP
540150
BC07D0
7D0BC0
3E1F40
2F2F00
0F7E00
0BFD00
07FC00
03F800
02F400
ENDCHAR
STARTCHAR w
ENCODING 119
SWIDTH 756 0
DWIDTH 14 0
BBX 13 10 0 0
BITMAP
14050540
7D1F0B80
7D1F0B80
7D1F0B80
7D1F0B80
7D1F0B80
3D1F0B80
3E6F9F80
2FFFFF40
0BF6FD00
ENDCHAR
STARTCHAR x
ENCODING 120
SWIDTH 528 0
DWIDTH 10 0
BBX 10 10 0 0
BITMAP
540550
7E0F80
2F6F00
0BFD00
03F800
03F400
0BFC00
1FBE00
3F1F80
BD0BD0
ENDCHAR
STARTCHAR y
ENCODING 121
SWIDTH 562 0
DWIDTH 10 0
BBX 10 14 0 -4
BITMAP
140140
7D07D0
7D07D0
7D07D0
7D07D0
7D07D0
3D07D0
3F5FD0
1FFFD0
07FFC0
001FC0
02FF40
02FD00
019000
ENDCHAR
STARTCHAR z
ENCODING 122
SWIDTH 481 0
DWIDTH 9 0
BBX 9 10 0 0
BITMAP
555500
BFFE00
BFFD00
00F800
01F000
03D000
0BC000
1F9500
2FFF40
7FFF40
ENDCHAR
STARTCHAR braceleft
ENCODING 123
SWIDTH 466 0
DWIDTH 8 0
BBX 8 17 0 -2
BITMAP
0055
02FE
07FE
07D0
07D0
07D0
07D0
6FC0
BF00
BF80
0BC0
07D0
07D0
07D0
07EA
03FE
00AA
ENDCHAR
STARTCHAR bar
ENCODING 124
SWIDTH 267 0
DWIDTH 5 0
BBX 3 17 1 -2
BITMAP
54
F8
F8
F8
F8
F8
F8
F8
F8
F8
F8
F8
F8
F8
F8
F8
A8
ENDCHAR
STARTCHAR braceright
ENCODING 125
SWIDTH 466 0
DWIDTH 8 0
BBX 8 17 0 -2
BITMAP
1500
7FC0
7FE0
03E0
02E0
02E0
02E0
01FA
00BF
01FF
02F0
02E0
02E0
02E0
6BE0
7FD0
6A40
ENDCHAR
STARTCHAR asciitilde
ENCODING 126
SWIDTH 451 0
DWIDTH 8 0
BBX 7 4 1 5
BITMAP
1010
BDB4
FFF0
F2E0
ENDCHAR
STARTCHAR nonbreakingspace
ENCODING 160
SWIDTH 279 0
DWIDTH 5 0
BBX 1 1 0 0
BITMAP
00
ENDCHAR
STARTCHAR exclamdown
ENCODING 161
SWIDTH 274 0
DWIDTH 5 0
BBX 3 14 1 -3
BITMAP
64
FC
B8
10
B4
B8
B8
B8
B8
B8
F8
FC
FC
A8
ENDCHAR
STARTCHAR cent
ENCODING 162
SWIDTH 462 0
DWIDTH 8 0
BBX 8 13 0 0
BITMAP
0090
01D0
01E0
0BFC
2E6D
3C04
7800
3C04
2EAD
0BFC
01E0
01D0
01D0
ENDCHAR
STARTCHAR sterling
ENCODING 163
SWIDTH 681 0
DWIDTH 12 0
BBX 12 13 0 0
BITMAP
006800
02FC00
07FC00
0BC000
0B8000
1BD000
7FF800
7FF800
1BD000
0B8029
0BEABD
0BFFF8
0BFFE0
ENDCHAR
STARTCHAR currency
ENCODING 164
SWIDTH 454 0
DWIDTH 8 0
BBX 8 8 0 2
BITMAP
1004
7FFD
2EB8
282C
282C
2EB8
7BED
1004
ENDCHAR
STARTCHAR yen
ENCODING 165
SWIDTH 653 0
DWIDTH 12 0
BBX 10 13 1 0
BITMAP
A401A0
F402F0
F402F0
F402F0
F402F0
F803E0
BE5FD0
2FFF80
6FFF90
BFFFD0
AAFA90
01F000
01F000
ENDCHAR
STARTCHAR brokenbar
ENCODING 166
SWIDTH 269 0
DWIDTH 5 0
BBX 3 17 1 -2
BITMAP
54
F8
F8
F8
F8
F8
F8
A8
00
54
F8
F8
F8
F8
F8
F8
A8
ENDCHAR
STARTCHAR section
ENCODING 167
SWIDTH 569 0
DWIDTH 10 0
BBX 9 13 1 0
BITMAP
1AA900
7FFE00
FEAA00
F95000
BFFD00
BFFF00
F80F40
FEAF40
7FFF00
1AAF40
555F40
FFFF00
FFF900
ENDCHAR
STARTCHAR dieresis
ENCODING 168
SWIDTH 300 0
DWIDTH 5 0
BBX 6 3 0 9
BITMAP
6180
F6D0
5040
ENDCHAR
STARTCHAR copyright
ENCODING 169
SWIDTH 655 0
DWIDTH 12 0
BBX 11 11 0 1
BITMAP
005400
02FF80
0E55E0
29FE34
37801C
77001C
37401C
3AD628
1D69B4
079AD0
01AA00
ENDCHAR
STARTCHAR ordfeminine
ENCODING 170
SWIDTH 451 0
DWIDTH 8 0
BBX 6 9 1 4
BITMAP
1A50
7AE0
E0E0
E0A0
B6E0
2FA0
0000
AAA0
AAA0
ENDCHAR
STARTCHAR guillemotleft
ENCODING 171
SWIDTH 704 0
DWIDTH 13 0
BBX 12 9 0 0
BITMAP
00A01C
02F47E
0BD1F8
2F47E0
7E0FD0
2F87F4
07E0FD
01F43E
005008
ENDCHAR
STARTCHAR logicalnot
ENCODING 172
SWIDTH 529 0
DWIDTH 10 0
BBX 8 5 1 3
BITMAP
AAA9
FFFD
AABD
003D
0029
ENDCHAR
STARTCHAR uni00AD
ENCODING 173
SWIDTH 418 0
DWIDTH 8 0
BBX 6 3 1 5
BITMAP
AA90
FFD0
AA90
ENDCHAR
STARTCHAR registered
ENCODING 174
SWIDTH 439 0
DWIDTH 8 0
BBX 8 7 0 6
BITMAP
0690
2A64
2698
6569
26C8
2968
0690
ENDCHAR
STARTCHAR macron
ENCODING 175
SWIDTH 247 0
DWIDTH 4 0
BBX 5 3 0 9
BITMAP
5540
FF40
5500
ENDCHAR
STARTCHAR degree
ENCODING 176
SWIDTH 381 0
DWIDTH 7 0
BBX 7 7 0 6
BITMAP
0100
1FD0
3EF0
78B4
3EF0
1FD0
0100
ENDCHAR
STARTCHAR plusminus
ENCODING 177
SWIDTH 516 0
DWIDTH 9 0
BBX 8 10 1 0
BITMAP
0680
0BC0
ABE9
FFFD
AFE9
0BC0
0680
5554
FFFD
FFFD
ENDCHAR
STARTCHAR twosuperior
ENCODING 178
SWIDTH 355 0
DWIDTH 6 0
BBX 5 7 1 6
BITMAP
6900
BF40
1B40
BF00
F500
FF40
AA40
ENDCHAR
STARTCHAR threesuperior
ENCODING 179
SWIDTH 354 0
DWIDTH 6 0
BBX 5 7 1 6
BITMAP
A900
FF40
6B80
7F40
5B80
FF40
A900
ENDCHAR
STARTCHAR acute
ENCODING 180
SWIDTH 225 0
DWIDTH 4 0
BBX 4 4 0 9
BITMAP
04
2D
BE
A4
ENDCHAR
STARTCHAR mu
ENCODING 181
SWIDTH 571 0
DWIDTH 10 0
BBX 9 14 1 -4
BITMAP
540540
F40F80
F40F80
F40F80
F40F80
F40F80
F80F80
FD6F80
FFFF80
FFF580
F40000
F00000
F00000
F00000
ENDCHAR
STARTCHAR paragraph
ENCODING 182
SWIDTH 808 0
DWIDTH 15 0
BBX 14 13 0 0
BITMAP
006AAA80
07FFFFD0
1FFFFFD0
3F4F87D0
7D0F87D0
7D0F87D0
7E0F87D0
3F4F87D0
1FFF87D0
07FF87D0
005F87D0
000F87D0
000F87D0
ENDCHAR
STARTCHAR periodcentered
ENCODING 183
SWIDTH 261 0
DWIDTH 5 0
BBX 3 3 1 5
BITMAP
64
F8
F8
ENDCHAR
STARTCHAR cedilla
ENCODING 184
SWIDTH 208 0
DWIDTH 4 0
BBX 4 5 0 -4
BITMAP
14
28
2E
AE
BD
ENDCHAR
STARTCHAR onesuperior
ENCODING 185
SWIDTH 231 0
DWIDTH 4 0
BBX 3 7 0 6
BITMAP
28
7C
2C
2C
2C
2C
18
ENDCHAR
STARTCHAR ordmasculine
ENCODING 186
SWIDTH 432 0
DWIDTH 8 0
BBX 6 9 1 4
BITMAP
1A40
7AD0
E0E0
E0A0
B6D0
2F80
0000
AAA0
AAA0
ENDCHAR
STARTCHAR guillemotright
ENCODING 187
SWIDTH 703 0
DWIDTH 13 0
BBX 11 9 1 0
BITMAP
700D00
FC2F40
7E0BD0
1F82F4
07E0FC
1F83F4
7E1FD0
F82F00
600800
ENDCHAR
STARTCHAR onequarter
ENCODING 188
SWIDTH 648 0
DWIDTH 12 0
BBX 10 13 1 0
BITMAP
640640
B80F00
782D00
383800
38B400
39E000
26D400
07AD90
0F2DD0
1D2DD0
3C3FF0
B43FF0
E001D0
ENDCHAR
STARTCHAR onehalf
ENCODING 189
SWIDTH 637 0
DWIDTH 11 0
BBX 10 13 1 0
BITMAP
640640
B80F00
782D00
383800
38B400
39E000
26D500
079FD0
0F1AE0
1D0BE0
3C2E80
B42E90
E02FE0
ENDCHAR
STARTCHAR threequarters
ENCODING 190
SWIDTH 708 0
DWIDTH 13 0
BBX 12 13 0 0
BITMAP
2A4064
7FC0F0
1AD1D0
2FC3C0
16DB40
7FDE00
2A6D40
0079D9
00B2DE
01E2DE
03C2FF
0743FF
0F001E
ENDCHAR
STARTCHAR questiondown
ENCODING 191
SWIDTH 602 0
DWIDTH 11 0
BBX 10 14 0 -3
BITMAP
000900
002F00
002F00
000400
002F00
002F00
07FE00
2FF800
3F5000
7D0000
7D0000
3FFFF0
1FFFF0
01AAA0
ENDCHAR
STARTCHAR Agrave
ENCODING 192
SWIDTH 673 0
DWIDTH 12 0
BBX 10 18 1 0
BITMAP
010000
0B8000
0BE000
01D000
000000
01A400
1FFF40
3FFFC0
BE07E0
F802F0
F801F0
F801F0
F801F0
FFFFF0
FFFFF0
F956F0
F801F0
F801F0
ENDCHAR
STARTCHAR Aacute
ENCODING 193
SWIDTH 673 0
DWIDTH 12 0
BBX 10 18 1 0
BITMAP
000400
001E00
00BE00
007400
000000
01A400
1FFF40
3FFFC0
BE07E0
F802F0
F801F0
F801F0
F801F0
FFFFF0
FFFFF0
F956F0
F801F0
F801F0
ENDCHAR
STARTCHAR Acircumflex
ENCODING 194
SWIDTH 673 0
DWIDTH 12 0
BBX 10 17 1 0
BITMAP
001000
01F400
03FD00
024800
01A400
1FFF40
3FFFC0
BE07E0
F802F0
F801F0
F801F0
F801F0
FFFFF0
FFFFF0
F956F0
F801F0
F801F0
ENDCHAR
STARTCHAR Atilde
ENCODING 195
SWIDTH 673 0
DWIDTH 12 0
BBX 10 17 1 0
BITMAP
014500
0BEF00
0BBE00
061400
01A400
1FFF40
3FFFC0
BE07E0
F802F0
F801F0
F801F0
F801F0
FFFFF0
FFFFF0
F956F0
F801F0
F801F0
ENDCHAR
STARTCHAR Adieresis
ENCODING 196
SWIDTH 673 0
DWIDTH 12 0
BBX 10 16 1 0
BITMAP
064900
0B9E00
010400
01A400
1FFF40
3FFFC0
BE07E0
F802F0
F801F0
F801F0
F801F0
FFFFF0
FFFFF0
F956F0
F801F0
F801F0
ENDCHAR
STARTCHAR Aring
ENCODING 197
SWIDTH 673 0
DWIDTH 12 0
BBX 10 16 1 0
BITMAP
005000
01F800
02A800
01F800
0FFF40
3FFFC0
BE07E0
F802F0
F801F0
F801F0
F801F0
FFFFF0
FFFFF0
F956F0
F801F0
F801F0
ENDCHAR
STARTCHAR AE
ENCODING 198
SWIDTH 988 0
DWIDTH 18 0
BBX 17 13 1 0
BITMAP
01AAAAAA00
1FFFFFFF40
3FFFFFFF40
BE01F00000
F801F00000
F801FAA000
F801FFF400
F801FFF400
FFFFF00000
FFFFF00000
F956FAAA00
F801FFFF40
F801FFFF40
ENDCHAR
STARTCHAR Ccedilla
ENCODING 199
SWIDTH 640 0
DWIDTH 12 0
BBX 11 17 0 -4
BITMAP
006A90
02FFF8
0FFAF8
2F8024
3E0000
7D0000
7C0000
7C0000
7D0000
3F4010
1FE5B4
07FFFC
01BFE4
002900
002D00
00AE00
00BD00
ENDCHAR
STARTCHAR Egrave
ENCODING 200
SWIDTH 578 0
DWIDTH 10 0
BBX 9 17 1 0
BITMAP
010000
0B4000
0BD000
01D000
AAAA40
BFFF80
BFFF80
B80000
B80000
BEA400
BFF800
BFF800
B80000
B80000
BEAA40
BFFF80
BFFF80
ENDCHAR
STARTCHAR Eacute
ENCODING 201
SWIDTH 578 0
DWIDTH 10 0
BBX 9 18 1 0
BITMAP
000400
003C00
00FD00
00E000
000000
AAAA40
BFFF80
BFFF80
B80000
B80000
BEA400
BFF800
BFF800
B80000
B80000
BEAA40
BFFF80
BFFF80
ENDCHAR
STARTCHAR Ecircumflex
ENCODING 202
SWIDTH 578 0
DWIDTH 10 0
BBX 9 17 1 0
BITMAP
004000
02E000
0BF800
062400
AAAA40
BFFF80
BFFF80
B80000
B80000
BEA400
BFF800
BFF800
B80000
B80000
BEAA40
BFFF80
BFFF80
ENDCHAR
STARTCHAR Edieresis
ENCODING 203
SWIDTH 578 0
DWIDTH 10 0
BBX 9 16 1 0
BITMAP
091800
0F3C00
051400
AAAA40
BFFF80
BFFF80
B80000
B80000
BEA400
BFF800
BFF800
B80000
B80000
BEAA40
BFFF80
BFFF80
ENDCHAR
STARTCHAR Igrave
ENCODING 204
SWIDTH 270 0
DWIDTH 5 0
BBX 5 17 -1 0
BITMAP
1000
3C00
7F00
0B00
0A40
0B80
0B80
0B80
0B80
0B80
0B80
0B80
0B80
0B80
0B80
0B80
0B80
ENDCHAR
STARTCHAR Iacute
ENCODING 205
SWIDTH 270 0
DWIDTH 5 0
BBX 5 17 1 0
BITMAP
1F00
7F40
3400
0000
A400
B800
B800
B800
B800
B800
B800
B800
B800
B800
B800
B800
B800
ENDCHAR
STARTCHAR Icircumflex
ENCODING 206
SWIDTH 270 0
DWIDTH 5 0
BBX 5 17 0 0
BITMAP
0400
2E00
BF80
6240
2900
2E00
2E00
2E00
2E00
2E00
2E00
2E00
2E00
2E00
2E00
2E00
2E00
ENDCHAR
STARTCHAR Idieresis
ENCODING 207
SWIDTH 270 0
DWIDTH 5 0
BBX 6 16 -1 0
BITMAP
2460
7CF0
1450
0A40
0B80
0B80
0B80
0B80
0B80
0B80
0B80
0B80
0B80
0B80
0B80
0B80
ENDCHAR
STARTCHAR Eth
ENCODING 208
SWIDTH 672 0
DWIDTH 12 0
BBX 12 13 0 0
BITMAP
1AA400
1FFF80
1FFFF0
1F02F8
1F00BC
AF903D
FFE03E
BFD03D
1F007D
1F01FC
1FABF4
1FFFD0
1FFE00
ENDCHAR
STARTCHAR Ntilde
ENCODING 209
SWIDTH 689 0
DWIDTH 12 0
BBX 11 17 1 0
BITMAP
014500
07EB00
0BBF00
061400
A800A0
BE01F4
BF01F4
BF81F4
BFD1F4
BAF1F4
B9F5F4
B8BDF4
B83FF4
B82FF4
B80FF4
B807F4
B802F4
ENDCHAR
STARTCHAR Ograve
ENCODING 210
SWIDTH 777 0
DWIDTH 14 0
BBX 14 19 0 -1
BITMAP
00100000
00B40000
00BE0000
001D0000
00000000
006A9000
02FFF800
0BFAFE00
2F802F80
3E000BC0
7D0007D0
7C0003D0
7C0003D0
7D0007D0
3F401FC0
1FE5BF40
07FFFD00
01BFE400
00050000
ENDCHAR
STARTCHAR Oacute
ENCODING 211
SWIDTH 777 0
DWIDTH 14 0
BBX 14 19 0 -1
BITMAP
00004000
0001E000
0007E000
00074000
00000000
006A9000
02FFF800
0BFAFE00
2F802F80
3E000BC0
7D0007D0
7C0003D0
7C0003D0
7D0007D0
3F401FC0
1FE5BF40
07FFFD00
01BFE400
00050000
ENDCHAR
STARTCHAR Ocircumflex
ENCODING 212
SWIDTH 777 0
DWIDTH 14 0
BBX 14 17 0 -1
BITMAP
001F4000
003FC000
00258000
006A9000
02FFF800
0BFAFE00
2F802F80
3E000BC0
7D0007D0
7C0003D0
7C0003D0
7D0007D0
3F401FC0
1FE5BF40
07FFFD00
01BFE400
00050000
ENDCHAR
STARTCHAR Otilde
ENCODING 213
SWIDTH 777 0
DWIDTH 14 0
BBX 14 18 0 -1
BITMAP
00145000
00BEF000
00FBE000
00614000
006A9000
02FFF800
0BFAFE00
2F802F80
3E000BC0
7D0007D0
7C0003D0
7C0003D0
7D0007D0
3F401FC0
1FE5BF40
07FFFD00
01BFE400
00050000
ENDCHAR
STARTCHAR Odieresis
ENCODING 214
SWIDTH 777 0
DWIDTH 14 0
BBX 14 17 0 -1
BITMAP
00609000
00B5E000
00104000
006A9000
02FFF800
0BFAFE00
2F802F80
3E000BC0
7D0007D0
7C0003D0
7C0003D0
7D0007D0
3F401FC0
1FE5BF40
07FFFD00
01BFE400
00050000
ENDCHAR
STARTCHAR multiply
ENCODING 215
SWIDTH 479 0
DWIDTH 9 0
BBX 7 7 1 3
BITMAP
2050
B9F4
BFF4
2FD0
7FE0
BEF4
24A0
ENDCHAR
STARTCHAR Oslash
ENCODING 216
SWIDTH 777 0
DWIDTH 14 0
BBX 14 14 0 -1
BITMAP
006A9A40
02FFFF00
0BFAFF00
2F80BF80
3E02EBC0
7D07C7D0
7C0F43D0
7C2E03D0
7DBC07D0
3FF41FC0
1FE5BF40
0BFFFD00
1FBFE400
00050000
ENDCHAR
STARTCHAR Ugrave
ENCODING 217
SWIDTH 673 0
DWIDTH 12 0
BBX 10 17 1 0
BITMAP
010000
078000
07E000
00A000
A401A0
F801F0
F801F0
F801F0
F801F0
F801F0
F801F0
F801F0
F802F0
BD03F0
7FAFD0
1FFF80
06F900
ENDCHAR
STARTCHAR Uacute
ENCODING 218
SWIDTH 673 0
DWIDTH 12 0
BBX 10 18 1 0
BITMAP
000400
001E00
007E00
007400
000000
A401A0
F801F0
F801F0
F801F0
F801F0
F801F0
F801F0
F801F0
F802F0
BD03F0
7FAFD0
1FFF80
06F900
ENDCHAR
STARTCHAR Ucircumflex
ENCODING 219
SWIDTH 673 0
DWIDTH 12 0
BBX 10 17 1 0
BITMAP
001000
01F400
03FD00
024800
A401A0
F801F0
F801F0
F801F0
F801F0
F801F0
F801F0
F801F0
F802F0
BD03F0
7FAFD0
1FFF80
06F900
ENDCHAR
STARTCHAR Udieresis
ENCODING 220
SWIDTH 673 0
DWIDTH 12 0
BBX 10 16 1 0
BITMAP
064900
0B9E00
010400
A401A0
F801F0
F801F0
F801F0
F801F0
F801F0
F801F0
F801F0
F802F0
BD03F0
7FAFD0
1FFF80
06F900
ENDCHAR
STARTCHAR Yacute
ENCODING 221
SWIDTH 620 0
DWIDTH 11 0
BBX 11 17 0 0
BITMAP
000100
000B00
003F40
002800
6800A4
7C00F8
7C00F8
7C00F8
7C00F8
7D01F4
2F9BF0
1FFFD0
06FE40
00BC00
00BC00
00BC00
00BC00
ENDCHAR
STARTCHAR Thorn
ENCODING 222
SWIDTH 637 0
DWIDTH 11 0
BBX 11 14 1 -1
BITMAP
B80000
B95000
BFFE00
BFFFC0
B95BE0
B802F0
B801F4
B801F0
B807F0
BEBFD0
BFFF40
BEA900
B80000
640000
ENDCHAR
STARTCHAR germandbls
ENCODING 223
SWIDTH 813 0
DWIDTH 15 0
BBX 15 14 0 0
BITMAP
01BFE400
07FFFC00
0FD57D00
1F002E00
6F017D00
BF0FFC00
BF2FE400
1F2E0000
1F2FAA80
1F1FFFF0
1F01AAF4
1F0555F4
1F0FFFF0
1F0FFF90
ENDCHAR
STARTCHAR agrave
ENCODING 224
SWIDTH 607 0
DWIDTH 11 0
BBX 10 15 0 0
BITMAP
010000
078000
07E000
00A000
000000
01A810
0FFFB0
2FAFF0
7D07F0
BC02F0
BC01F0
7D02F0
3F5BF0
1FFFF0
07FD30
ENDCHAR
STARTCHAR aacute
ENCODING 225
SWIDTH 607 0
DWIDTH 11 0
BBX 10 15 0 0
BITMAP
000400
001E00
007E00
007400
000000
01A810
0FFFB0
2FAFF0
7D07F0
BC02F0
BC01F0
7D02F0
3F5BF0
1FFFF0
07FD30
ENDCHAR
STARTCHAR acircumflex
ENCODING 226
SWIDTH 607 0
DWIDTH 11 0
BBX 10 14 0 0
BITMAP
001000
00B400
03FD00
014800
01A810
0FFFB0
2FAFF0
7D07F0
BC02F0
BC01F0
7D02F0
3F5BF0
1FFFF0
07FD30
ENDCHAR
STARTCHAR atilde
ENCODING 227
SWIDTH 607 0
DWIDTH 11 0
BBX 10 14 0 0
BITMAP
014500
07EB00
0BBF00
061500
01A810
0FFFB0
2FAFF0
7D07F0
BC02F0
BC01F0
7D02F0
3F5BF0
1FFFF0
07FD30
ENDCHAR
STARTCHAR adieresis
ENCODING 228
SWIDTH 607 0
DWIDTH 11 0
BBX 10 13 0 0
BITMAP
024900
079F00
010500
01A810
0FFFB0
2FAFF0
7D07F0
BC02F0
BC01F0
7D02F0
3F5BF0
1FFFF0
07FD30
ENDCHAR
STARTCHAR aring
ENCODING 229
SWIDTH 607 0
DWIDTH 11 0
BBX 10 14 0 0
BITMAP
00A000
01E800
01E800
00A400
01A810
0FFFB0
2FAFF0
7D07F0
BC02F0
BC01F0
7D02F0
3F5BF0
1FFFF0
07FD30
ENDCHAR
STARTCHAR ae
ENCODING 230
SWIDTH 976 0
DWIDTH 18 0
BBX 17 10 0 0
BITMAP
01A811A900
0FFFBFFF80
2FAFFFEFC0
7D07FE2F40
BC02FC7D00
BC01FCF800
7D02FFE100
3F5BFFDB80
1FFFFFFFC0
07FD36FE00
ENDCHAR
STARTCHAR ccedilla
ENCODING 231
SWIDTH 521 0
DWIDTH 9 0
BBX 9 14 0 -4
BITMAP
01A800
0BFF40
2FAFC0
7E0340
BC0000
BC0000
7C0100
3F5B40
1FFF80
07FE00
00A000
00B400
02B800
02F000
ENDCHAR
STARTCHAR egrave
ENCODING 232
SWIDTH 524 0
DWIDTH 9 0
BBX 9 15 0 0
BITMAP
010000
078000
0BE000
019000
000000
01A900
0FFF40
2FAFC0
7D2F40
BC7D00
BDF400
7FE100
3FDB80
1FFF80
07FE00
ENDCHAR
STARTCHAR eacute
ENCODING 233
SWIDTH 524 0
DWIDTH 9 0
BBX 9 15 0 0
BITMAP
000400
001E00
007E00
007400
000000
01A900
0FFF40
2FAFC0
7D2F40
BC7D00
BDF400
7FE100
3FDB80
1FFF80
07FE00
ENDCHAR
STARTCHAR ecircumflex
ENCODING 234
SWIDTH 524 0
DWIDTH 9 0
BBX 9 14 0 0
BITMAP
004000
01E000
07FC00
021800
01A900
0FFF40
2FAFC0
7D2F40
BC7D00
BDF400
7FE100
3FDB80
1FFF80
07FE00
ENDCHAR
STARTCHAR edieresis
ENCODING 235
SWIDTH 524 0
DWIDTH 9 0
BBX 9 13 0 0
BITMAP
061800
0F6D00
050400
01A900
0FFF40
2FAFC0
7D2F40
BC7D00
BDF400
7FE100
3FDB80
1FFF80
07FE00
ENDCHAR
STARTCHAR igrave
ENCODING 236
SWIDTH 235 0
DWIDTH 4 0
BBX 5 14 -1 0
BITMAP
1000
7800
7E00
1A00
0500
0F40
0F40
0F40
0F40
0F40
0F40
0F40
0F40
0F40
ENDCHAR
STARTCHAR iacute
ENCODING 237
SWIDTH 235 0
DWIDTH 4 0
BBX 4 14 1 0
BITMAP
04
1E
7E
74
50
F4
F4
F4
F4
F4
F4
F4
F4
F4
ENDCHAR
STARTCHAR icircumflex
ENCODING 238
SWIDTH 235 0
DWIDTH 4 0
BBX 5 14 0 0
BITMAP
0400
3D00
FF40
9200
1400
3D00
3D00
3D00
3D00
3D00
3D00
3D00
3D00
3D00
ENDCHAR
STARTCHAR idieresis
ENCODING 239
SWIDTH 235 0
DWIDTH 4 0
BBX 6 13 -1 0
BITMAP
6490
B9E0
1050
0500
0F40
0F40
0F40
0F40
0F40
0F40
0F40
0F40
0F40
ENDCHAR
STARTCHAR eth
ENCODING 240
SWIDTH 581 0
DWIDTH 10 0
BBX 10 14 0 0
BITMAP
00A800
06FE90
0BFFE0
056F90
01AF80
0BFFD0
2FAFE0
7D03E0
BC02F0
BC01F0
7D02E0
3F5BD0
1FFF80
07FE00
ENDCHAR
STARTCHAR ntilde
ENCODING 241
SWIDTH 562 0
DWIDTH 10 0
BBX 9 14 1 0
BITMAP
051400
2FAC00
2EF800
185000
469000
EFF800
FFFE00
F82F00
F40F40
F40F40
F40F40
F40F40
F40F40
F40F40
ENDCHAR
STARTCHAR ograve
ENCODING 242
SWIDTH 579 0
DWIDTH 10 0
BBX 10 15 0 0
BITMAP
010000
078000
07E000
00A000
000000
01A900
0FFF40
2FAFD0
7D03E0
BC02F0
BC01F0
7D02E0
3F5BD0
1FFF80
07FE00
ENDCHAR
STARTCHAR oacute
ENCODING 243
SWIDTH 579 0
DWIDTH 10 0
BBX 10 15 0 0
BITMAP
000400
001E00
007E00
007400
000000
01A900
0FFF40
2FAFD0
7D03E0
BC02F0
BC01F0
7D02E0
3F5BD0
1FFF80
07FE00
ENDCHAR
STARTCHAR ocircumflex
ENCODING 244
SWIDTH 579 0
DWIDTH 10 0
BBX 10 14 0 0
BITMAP
001000
00F400
03FD00
014800
01A900
0FFF40
2FAFD0
7D03E0
BC02F0
BC01F0
7D02E0
3F5BD0
1FFF80
07FE00
ENDCHAR
STARTCHAR otilde
ENCODING 245
SWIDTH 579 0
DWIDTH 10 0
BBX 10 14 0 0
BITMAP
014500
07EB00
0BBF00
061400
01A900
0FFF40
2FAFD0
7D03E0
BC02F0
BC01F0
7D02E0
3F5BD0
1FFF80
07FE00
ENDCHAR
STARTCHAR odieresis
ENCODING 246
SWIDTH 579 0
DWIDTH 10 0
BBX 10 13 0 0
BITMAP
024900
079F00
010500
01A900
0FFF40
2FAFD0
7D03E0
BC02F0
BC01F0
7D02E0
3F5BD0
1FFF80
07FE00
ENDCHAR
STARTCHAR divide
ENCODING 247
SWIDTH 494 0
DWIDTH 9 0
BBX 8 9 0 2
BITMAP
0190
02E0
0190
2AAA
7FFF
6AAA
0180
02E0
01D0
ENDCHAR
STARTCHAR oslash
ENCODING 248
SWIDTH 579 0
DWIDTH 10 0
BBX 10 10 0 0
BITMAP
01A990
0FFFD0
2FAFD0
7D2FE0
BC7EF0
BDF5F0
7FE2E0
3FDBD0
2FFF80
7FFE00
ENDCHAR
STARTCHAR ugrave
ENCODING 249
SWIDTH 562 0
DWIDTH 10 0
BBX 10 14 0 0
BITMAP
010000
0B8000
0BE000
01D000
140140
7D07D0
7D07D0
7D07D0
7D07D0
7D07D0
3D07D0
3F5FD0
1FFFD0
07F990
ENDCHAR
STARTCHAR uacute
ENCODING 250
SWIDTH 562 0
DWIDTH 10 0
BBX 10 14 0 0
BITMAP
000400
002E00
00BE00
007400
140140
7D07D0
7D07D0
7D07D0
7D07D0
7D07D0
3D07D0
3F5FD0
1FFFD0
07F990
ENDCHAR
STARTCHAR ucircumflex
ENCODING 251
SWIDTH 562 0
DWIDTH 10 0
BBX 10 13 0 0
BITMAP
01F400
03FC00
025800
140140
7D07D0
7D07D0
7D07D0
7D07D0
7D07D0
3D07D0
3F5FD0
1FFFD0
07F990
ENDCHAR
STARTCHAR udieresis
ENCODING 252
SWIDTH 562 0
DWIDTH 10 0
BBX 10 13 0 0
BITMAP
060900
0B5E00
010400
140140
7D07D0
7D07D0
7D07D0
7D07D0
7D07D0
3D07D0
3F5FD0
1FFFD0
07F990
ENDCHAR
STARTCHAR yacute
ENCODING 253
SWIDTH 562 0
DWIDTH 10 0
BBX 10 18 0 -4
BITMAP
000400
002D00
00BE00
006400
140140
7D07D0
7D07D0
7D07D0
7D07D0
7D07D0
3D07D0
3F5FD0
1FFFD0
07FFC0
001FC0
02FF40
02FD00
019000
ENDCHAR
STARTCHAR thorn
ENCODING 254
SWIDTH 608 0
DWIDTH 11 0
BBX 10 18 1 -4
BITMAP
500000
F40000
F40000
F40000
F9A400
FFFF00
FFAF80
FC0BD0
F403D0
F403E0
F807D0
FE5FC0
FFFF40
FBFD00
F44000
F40000
F40000
A40000
ENDCHAR
STARTCHAR ydieresis
ENCODING 255
SWIDTH 562 0
DWIDTH 10 0
BBX 10 17 0 -4
BITMAP
060900
0B5E00
010400
140140
7D07D0
7D07D0
7D07D0
7D07D0
7D07D0
3D07D0
3F5FD0
1FFFD0
07FFC0
001FC0
02FF40
02FD00
019000
ENDCHAR
STARTCHAR Amacron
ENCODING 256
SWIDTH 673 0
DWIDTH 12 0
BBX 10 16 1 0
BITMAP
015400
07FD00
015400
01A400
1FFF40
3FFFC0
BE07E0
F802F0
F801F0
F801F0
F801F0
FFFFF0
FFFFF0
F956F0
F801F0
F801F0
ENDCHAR
STARTCHAR amacron
ENCODING 257
SWIDTH 607 0
DWIDTH 11 0
BBX 10 13 0 0
BITMAP
015400
03FD00
015400
01A810
0FFFB0
2FAFF0
7D07F0
BC02F0
BC01F0
7D02F0
3F5BF0
1FFFF0
07FD30
ENDCHAR
STARTCHAR Abreve
ENCODING 258
SWIDTH 673 0
DWIDTH 12 0
BBX 10 17 1 0
BITMAP
010000
03AC00
02F800
005000
01A400
1FFF40
3FFFC0
BE07E0
F802F0
F801F0
F801F0
F801F0
FFFFF0
FFFFF0
F956F0
F801F0
F801F0
ENDCHAR
STARTCHAR abreve
ENCODING 259
SWIDTH 607 0
DWIDTH 11 0
BBX 10 14 0 0
BITMAP
010400
03AC00
02F800
005000
01A810
0FFFB0
2FAFF0
7D07F0
BC02F0
BC01F0
7D02F0
3F5BF0
1FFFF0
07FD30
ENDCHAR
STARTCHAR Aogonek
ENCODING 260
SWIDTH 673 0
DWIDTH 12 0
BBX 11 16 1 -3
BITMAP
01A400
1FFF40
3FFFC0
BE07E0
F802F0
F801F0
F801F0
F801F0
FFFFF0
FFFFF0
F956F0
F801F0
F801F0
0002C0
0003E0
0002F4
ENDCHAR
STARTCHAR aogonek
ENCODING 261
SWIDTH 607 0
DWIDTH 11 0
BBX 12 13 0 -3
BITMAP
01A810
0FFFB0
2FAFF0
7D07F0
BC02F0
BC01F0
7D02F0
3F5BF0
1FFFF0
07FD30
0000A0
0001E8
0000FD
ENDCHAR
STARTCHAR Cacute
ENCODING 262
SWIDTH 640 0
DWIDTH 12 0
BBX 11 19 0 -1
BITMAP
000040
0002D0
000FD0
000A00
000000
006A90
02FFF8
0FFAF8
2F8024
3E0000
7D0000
7C0000
7C0000
7D0000
3F4010
1FE5B4
07FFFC
01BFE4
000500
ENDCHAR
STARTCHAR cacute
ENCODING 263
SWIDTH 521 0
DWIDTH 9 0
BBX 9 15 0 0
BITMAP
000400
002D00
00BE00
00A400
000000
01A800
0BFF40
2FAFC0
7E0340
BC0000
BC0000
7C0100
3F5B40
1FFF80
07FE00
ENDCHAR
STARTCHAR Ccircumflex
ENCODING 264
SWIDTH 640 0
DWIDTH 12 0
BBX 11 18 0 -1
BITMAP
000400
001E00
007F80
002140
006A90
02FFF8
0FFAF8
2F8024
3E0000
7D0000
7C0000
7C0000
7D0000
3F4010
1FE5B4
07FFFC
01BFE4
000500
ENDCHAR
STARTCHAR ccircumflex
ENCODING 265
SWIDTH 521 0
DWIDTH 9 0
BBX 9 14 0 0
BITMAP
001000
00F400
03FD00
024800
01A800
0BFF40
2FAFC0
7E0340
BC0000
BC0000
7C0100
3F5B40
1FFF80
07FE00
ENDCHAR
STARTCHAR Cdotaccent
ENCODING 266
SWIDTH 640 0
DWIDTH 12 0
BBX 11 17 0 -1
BITMAP
000A00
000F00
000400
006A90
02FFF8
0FFAF8
2F8024
3E0000
7D0000
7C0000
7C0000
7D0000
3F4010
1FE5B4
07FFFC
01BFE4
000500
ENDCHAR
STARTCHAR cdotaccent
ENCODING 267
SWIDTH 521 0
DWIDTH 9 0
BBX 9 13 0 0
BITMAP
00A000
00B400
001000
01A800
0BFF40
2FAFC0
7E0340
BC0000
BC0000
7C0100
3F5B40
1FFF80
07FE00
ENDCHAR
STARTCHAR Ccaron
ENCODING 268
SWIDTH 640 0
DWIDTH 12 0
BBX 11 18 0 -1
BITMAP
001040
007BC0
001F40
000500
006A90
02FFF8
0FFAF8
2F8024
3E0000
7D0000
7C0000
7C0000
7D0000
3F4010
1FE5B4
07FFFC
01BFE4
000500
ENDCHAR
STARTCHAR ccaron
ENCODING 269
SWIDTH 521 0
DWIDTH 9 0
BBX 9 14 0 0
BITMAP
010400
03ED00
01F800
001000
01A800
0BFF40
2FAFC0
7E0340
BC0000
BC0000
7C0100
3F5B40
1FFF80
07FE00
ENDCHAR
STARTCHAR Dcaron
ENCODING 270
SWIDTH 653 0
DWIDTH 12 0
BBX 11 17 1 0
BITMAP
010400
07BC00
01F400
005000
AA9000
BFFD00
BFFF80
B81FD0
B803E0
B801F0
B801F4
B801F0
B802F0
B80BE0
BEBFC0
BFFE00
BFE400
ENDCHAR
STARTCHAR dcaron
ENCODING 271
SWIDTH 740 0
DWIDTH 13 0
BBX 14 13 0 0
BITMAP
0001F140
0001F3D0
0001F2D0
01A9F180
0FFFF000
2FAFF000
7D07F000
BC02F000
BC01F000
7D02F000
3F5BF000
1FFFF000
07FD3000
ENDCHAR
STARTCHAR Dcroat
ENCODING 272
SWIDTH 672 0
DWIDTH 12 0
BBX 12 13 0 0
BITMAP
1AA400
1FFF80
1FFFF0
1F02F8
1F00BC
AF903D
FFE03E
BFD03D
1F007D
1F01FC
1FABF4
1FFFD0
1FFE00
ENDCHAR
STARTCHAR dcroat
ENCODING 273
SWIDTH 606 0
DWIDTH 11 0
BBX 11 13 0 0
BITMAP
0006F8
0007FC
0007F8
01A9F0
0FFFF0
2FAFF0
7D07F0
BC02F0
BC01F0
7D02F0
3F5BF0
1FFFF0
07FD30
ENDCHAR
STARTCHAR Emacron
ENCODING 274
SWIDTH 578 0
DWIDTH 10 0
BBX 9 16 1 0
BITMAP
055400
0BFC00
055400
AAAA40
BFFF80
BFFF80
B80000
B80000
BEA400
BFF800
BFF800
B80000
B80000
BEAA40
BFFF80
BFFF80
ENDCHAR
STARTCHAR emacron
ENCODING 275
SWIDTH 524 0
DWIDTH 9 0
BBX 9 13 0 0
BITMAP
015400
03FD00
015400
01A900
0FFF40
2FAFC0
7D2F40
BC7D00
BDF400
7FE100
3FDB80
1FFF80
07FE00
ENDCHAR
STARTCHAR Ebreve
ENCODING 276
SWIDTH 578 0
DWIDTH 10 0
BBX 9 17 1 0
BITMAP
011000
077400
07F000
004000
AAAA40
BFFF80
BFFF80
B80000
B80000
BEA400
BFF800
BFF800
B80000
B80000
BEAA40
BFFF80
BFFF80
ENDCHAR
STARTCHAR ebreve
ENCODING 277
SWIDTH 524 0
DWIDTH 9 0
BBX 9 14 0 0
BITMAP
010000
03AC00
02F800
005000
01A900
0FFF40
2FAFC0
7D2F40
BC7D00
BDF400
7FE100
3FDB80
1FFF80
07FE00
ENDCHAR
STARTCHAR Edotaccent
ENCODING 278
SWIDTH 578 0
DWIDTH 10 0
BBX 9 16 1 0
BITMAP
01D000
01E000
004000
AAAA40
BFFF80
BFFF80
B80000
B80000
BEA400
BFF800
BFF800
B80000
B80000
BEAA40
BFFF80
BFFF80
ENDCHAR
STARTCHAR edotaccent
ENCODING 279
SWIDTH 524 0
DWIDTH 9 0
BBX 9 13 0 0
BITMAP
00A000
00F000
001000
01A900
0FFF40
2FAFC0
7D2F40
BC7D00
BDF400
7FE100
3FDB80
1FFF80
07FE00
ENDCHAR
STARTCHAR Eogonek
ENCODING 280
SWIDTH 578 0
DWIDTH 10 0
BBX 9 16 1 -3
BITMAP
AAAA40
BFFF80
BFFF80
B80000
B80000
BEA400
BFF800
BFF800
B80000
B80000
BEAA40
BFFF80
BFFF80
002C00
003E00
002F40
ENDCHAR
STARTCHAR eogonek
ENCODING 281
SWIDTH 524 0
DWIDTH 9 0
BBX 9 13 0 -3
BITMAP
01A900
0FFF40
2FAFC0
7D2F40
BC7D00
BDF400
7FE100
3FDB80
1FFF80
07FE00
002800
003A00
002F40
ENDCHAR
STARTCHAR Ecaron
ENCODING 282
SWIDTH 578 0
DWIDTH 10 0
BBX 9 17 1 0
BITMAP
011000
0BB800
02F000
008000
AAAA40
BFFF80
BFFF80
B80000
B80000
BEA400
BFF800
BFF800
B80000
B80000
BEAA40
BFFF80
BFFF80
ENDCHAR
STARTCHAR ecaron
ENCODING 283
SWIDTH 524 0
DWIDTH 9 0
BBX 9 14 0 0
BITMAP
010400
03ED00
01F400
005000
01A900
0FFF40
2FAFC0
7D2F40
BC7D00
BDF400
7FE100
3FDB80
1FFF80
07FE00
ENDCHAR
STARTCHAR Gcircumflex
ENCODING 284
SWIDTH 665 0
DWIDTH 12 0
BBX 12 18 0 -1
BITMAP
000400
001E00
007F80
002140
006A90
02FFF8
0BFAF8
2F8024
3E0000
7D0000
7C0014
7C007D
7D007D
3F407D
1FE5BD
07FFFC
01BFE4
000500
ENDCHAR
STARTCHAR gcircumflex
ENCODING 285
SWIDTH 607 0
DWIDTH 11 0
BBX 10 18 0 -4
BITMAP
001000
00F400
03FD00
024800
01A810
0FFFB0
2FAFF0
7D07F0
BC02F0
BC01F0
7D02F0
3F5BF0
1FFFF0
07FFF0
0007E0
00BFD0
00FF40
00A400
ENDCHAR
STARTCHAR Gbreve
ENCODING 286
SWIDTH 665 0
DWIDTH 12 0
BBX 12 18 0 -1
BITMAP
001100
003B80
002F40
000500
006A90
02FFF8
0BFAF8
2F8024
3E0000
7D0000
7C0014
7C007D
7D007D
3F407D
1FE5BD
07FFFC
01BFE4
000500
ENDCHAR
STARTCHAR gbreve
ENCODING 287
SWIDTH 607 0
DWIDTH 11 0
BBX 10 18 0 -4
BITMAP
000400
02EC00
01F800
005000
01A810
0FFFB0
2FAFF0
7D07F0
BC02F0
BC01F0
7D02F0
3F5BF0
1FFFF0
07FFF0
0007E0
00BFD0
00FF40
00A400
ENDCHAR
STARTCHAR Gdotaccent
ENCODING 288
SWIDTH 665 0
DWIDTH 12 0
BBX 12 17 0 -1
BITMAP
000D00
001E00
000400
006A90
02FFF8
0BFAF8
2F8024
3E0000
7D0000
7C0014
7C007D
7D007D
3F407D
1FE5BD
07FFFC
01BFE4
000500
ENDCHAR
STARTCHAR gdotaccent
ENCODING 289
SWIDTH 607 0
DWIDTH 11 0
BBX 10 17 0 -4
BITMAP
00A000
00F000
001000
01A810
0FFFB0
2FAFF0
7D07F0
BC02F0
BC01F0
7D02F0
3F5BF0
1FFFF0
07FFF0
0007E0
00BFD0
00FF40
00A400
ENDCHAR
STARTCHAR Gcommaaccent
ENCODING 290
SWIDTH 665 0
DWIDTH 12 0
BBX 12 18 0 -5
BITMAP
006A90
02FFF8
0BFAF8
2F8024
3E0000
7D0000
7C0014
7C007D
7D007D
3F407D
1FE5BD
07FFFC
01BFE4
000500
001E00
001F00
000A00
000400
ENDCHAR
STARTCHAR gcommaaccent
ENCODING 291
SWIDTH 607 0
DWIDTH 11 0
BBX 10 18 0 -4
BITMAP
00A000
00F000
00F400
005000
01A810
0FFFB0
2FAFF0
7D07F0
BC02F0
BC01F0
7D02F0
3F5BF0
1FFFF0
07FFF0
0007E0
00BFD0
00FF40
00A400
ENDCHAR
STARTCHAR Hcircumflex
ENCODING 292
SWIDTH 689 0
DWIDTH 12 0
BBX 11 17 1 0
BITMAP
001000
00B400
03FD00
014800
A400A0
B801F4
B801F4
B801F4
B801F4
BEAAF4
BFFFF4
BFFFF4
B801F4
B801F4
B801F4
B801F4
B801F4
ENDCHAR
STARTCHAR hcircumflex
ENCODING 293
SWIDTH 562 0
DWIDTH 10 0
BBX 9 14 1 0
BITMAP
001000
F4F400
F7FD00
F64800
F59000
FFF800
FFFE00
F82F00
F40F40
F40F40
F40F40
F40F40
F40F40
F40F40
ENDCHAR
STARTCHAR Hbar
ENCODING 294
SWIDTH 689 0
DWIDTH 12 0
BBX 12 13 0 0
BITMAP
290028
3E007D
BFFFFF
BFFFFF
7E55BE
2FAABD
2FFFFD
2FFFFD
2E007D
2E007D
2E007D
2E007D
2E007D
ENDCHAR
STARTCHAR hbar
ENCODING 295
SWIDTH 562 0
DWIDTH 10 0
BBX 10 13 0 0
BITMAP
BE0000
FF0000
BE0000
3D6400
3FFE00
3FFF80
3E0BC0
3D03D0
3D03D0
3D03D0
3D03D0
3D03D0
3D03D0
ENDCHAR
STARTCHAR Itilde
ENCODING 296
SWIDTH 270 0
DWIDTH 5 0
BBX 7 17 -1 0
BITMAP
1410
7FB4
7BF0
2450
0A40
0B80
0B80
0B80
0B80
0B80
0B80
0B80
0B80
0B80
0B80
0B80
0B80
ENDCHAR
STARTCHAR itilde
ENCODING 297
SWIDTH 235 0
DWIDTH 4 0
BBX 6 14 -1 0
BITMAP
1450
BEB0
BBE0
6140
0500
0F40
0F40
0F40
0F40
0F40
0F40
0F40
0F40
0F40
ENDCHAR
STARTCHAR Imacron
ENCODING 298
SWIDTH 270 0
DWIDTH 5 0
BBX 5 16 0 0
BITMAP
5540
BF80
5540
2900
2E00
2E00
2E00
2E00
2E00
2E00
2E00
2E00
2E00
2E00
2E00
2E00
ENDCHAR
STARTCHAR imacron
ENCODING 299
SWIDTH 235 0
DWIDTH 4 0
BBX 5 13 0 0
BITMAP
5540
FF40
5500
1400
3D00
3D00
3D00
3D00
3D00
3D00
3D00
3D00
3D00
ENDCHAR
STARTCHAR Ibreve
ENCODING 300
SWIDTH 270 0
DWIDTH 5 0
BBX 5 17 0 0
BITMAP
1100
7740
7F40
0400
2900
2E00
2E00
2E00
2E00
2E00
2E00
2E00
2E00
2E00
2E00
2E00
2E00
ENDCHAR
STARTCHAR ibreve
ENCODING 301
SWIDTH 235 0
DWIDTH 4 0
BBX 4 13 0 0
BITMAP
01
BB
7E
28
3D
3D
3D
3D
3D
3D
3D
3D
3D
ENDCHAR
STARTCHAR Iogonek
ENCODING 302
SWIDTH 270 0
DWIDTH 5 0
BBX 4 16 0 -3
BITMAP
29
2E
2E
2E
2E
2E
2E
2E
2E
2E
2E
2E
2E
38
7A
3F
ENDCHAR
STARTCHAR iogonek
ENCODING 303
SWIDTH 235 0
DWIDTH 4 0
BBX 4 17 0 -3
BITMAP
14
7E
7E
18
14
3D
3D
3D
3D
3D
3D
3D
3D
3D
74
B9
7E
ENDCHAR
STARTCHAR Idotaccent
ENCODING 304
SWIDTH 270 0
DWIDTH 5 0
BBX 3 16 1 0
BITMAP
74
B4
10
A4
B8
B8
B8
B8
B8
B8
B8
B8
B8
B8
B8
B8
ENDCHAR
STARTCHAR dotlessi
ENCODING 305
SWIDTH 235 0
DWIDTH 4 0
BBX 3 10 1 0
BITMAP
50
F4
F4
F4
F4
F4
F4
F4
F4
F4
ENDCHAR
STARTCHAR IJ
ENCODING 306
SWIDTH 687 0
DWIDTH 12 0
BBX 11 13 1 0
BITMAP
A400A4
B801F4
B801F4
B801F4
B801F4
B801F4
B801F4
B801F4
B801F4
B802F0
B8AFE0
B8FF80
B8FD00
ENDCHAR
STARTCHAR ij
ENCODING 307
SWIDTH 474 0
DWIDTH 9 0
BBX 8 18 0 -4
BITMAP
1418
7E3F
7E3F
1819
1415
3D2E
3D2E
3D2E
3D2E
3D2E
3D2E
3D2E
3D2E
3D3E
00BD
1BF8
1FE0
1A40
ENDCHAR
STARTCHAR Jcircumflex
ENCODING 308
SWIDTH 416 0
DWIDTH 8 0
BBX 8 17 0 0
BITMAP
0010
00F4
03FD
0248
00A4
00F4
00F4
00F4
00F4
00F4
00F4
00F4
00F4
02F4
ABE0
BFC0
BE00
ENDCHAR
STARTCHAR jcircumflex
ENCODING 309
SWIDTH 237 0
DWIDTH 4 0
BBX 8 18 -3 -4
BITMAP
0010
00F4
03FD
0248
0050
00F4
00F4
00F4
00F4
00F4
00F4
00F4
00F4
01F4
02F0
AFD0
BF80
6400
ENDCHAR
STARTCHAR Kcommaaccent
ENCODING 310
SWIDTH 625 0
DWIDTH 11 0
BBX 10 18 1 -5
BITMAP
A402A0
B807D0
B81F80
B83F00
B8BD00
B9F400
BFF800
BFFD00
BF7E00
BD2F40
B80FC0
B807D0
B803F0
000000
01E000
01E000
00A000
004000
ENDCHAR
STARTCHAR kcommaaccent
ENCODING 311
SWIDTH 539 0
DWIDTH 10 0
BBX 9 18 1 -5
BITMAP
F40000
F40000
F40000
F40540
F42F00
F4BD00
F5F400
FBE000
FFF000
FFF800
FD7D00
F83E00
F41F40
000000
078000
07C000
028000
010000
ENDCHAR
STARTCHAR kgreenlandic
ENCODING 312
SWIDTH 539 0
DWIDTH 10 0
BBX 9 10 1 0
BITMAP
500540
F42F00
F4BD00
F5F400
FBE000
FFF000
FFF800
FD7D00
F83E00
F41F40
ENDCHAR
STARTCHAR Lacute
ENCODING 313
SWIDTH 562 0
DWIDTH 10 0
BBX 9 16 1 0
BITMAP
001000
00B400
02F400
A68000
B80000
B80000
B80000
B80000
B80000
B80000
B80000
B80000
B80000
BEAA80
BFFFC0
BFFFC0
ENDCHAR
STARTCHAR lacute
ENCODING 314
SWIDTH 235 0
DWIDTH 4 0
BBX 5 18 1 0
BITMAP
0100
0B40
2F40
2800
1000
F400
F400
F400
F400
F400
F400
F400
F400
F400
F400
F400
F400
F400
ENDCHAR
STARTCHAR Lcommaaccent
ENCODING 315
SWIDTH 562 0
DWIDTH 10 0
BBX 9 18 1 -5
BITMAP
A40000
B80000
B80000
B80000
B80000
B80000
B80000
B80000
B80000
B80000
BEAA80
BFFFC0
BFFFC0
000000
03C000
03D000
01C000
014000
ENDCHAR
STARTCHAR lcommaaccent
ENCODING 316
SWIDTH 235 0
DWIDTH 4 0
BBX 3 18 1 -5
BITMAP
F4
F4
F4
F4
F4
F4
F4
F4
F4
F4
F4
F4
F4
00
F0
F4
70
10
ENDCHAR
STARTCHAR Lcaron
ENCODING 317
SWIDTH 562 0
DWIDTH 10 0
BBX 9 13 1 0
BITMAP
A45000
B9F000
B8B000
B86000
B80000
B80000
B80000
B80000
B80000
B80000
BEAA80
BFFFC0
BFFFC0
ENDCHAR
STARTCHAR lcaron
ENCODING 318
SWIDTH 369 0
DWIDTH 7 0
BBX 6 13 1 0
BITMAP
F580
F6E0
F5E0
F4C0
F400
F400
F400
F400
F400
F400
F400
F400
F400
ENDCHAR
STARTCHAR Ldot
ENCODING 319
SWIDTH 745 0
DWIDTH 13 0
BBX 12 13 1 0
BITMAP
A40000
B80000
B80000
B80000
B80000
B80028
B8007D
B8007D
B80000
B80000
BEAA80
BFFFC0
BFFFC0
ENDCHAR
STARTCHAR ldotaccent
ENCODING 320
SWIDTH 463 0
DWIDTH 8 0
BBX 7 13 1 0
BITMAP
F400
F400
F400
F400
F400
F4A0
F5F4
F5F4
F400
F400
F400
F400
F400
ENDCHAR
STARTCHAR Lslash
ENCODING 321
SWIDTH 585 0
DWIDTH 11 0
BBX 11 13 0 0
BITMAP
1A0000
1F0000
1F0000
1F0000
1F9000
1FE000
7FD000
FF0000
AF0000
1F0000
1FAAA4
1FFFF4
1FFFF4
ENDCHAR
STARTCHAR lslash
ENCODING 322
SWIDTH 319 0
DWIDTH 6 0
BBX 6 13 0 0
BITMAP
1F00
1F00
1F00
1F00
1F50
1FE0
6FD0
BF00
AF00
1F00
1F00
1F00
1F00
ENDCHAR
STARTCHAR Nacute
ENCODING 323
SWIDTH 689 0
DWIDTH 12 0
BBX 11 17 1 0
BITMAP
000400
001E00
007E00
007400
A800A0
BE01F4
BF01F4
BF81F4
BFD1F4
BAF1F4
B9F5F4
B8BDF4
B83FF4
B82FF4
B80FF4
B807F4
B802F4
ENDCHAR
STARTCHAR nacute
ENCODING 324
SWIDTH 562 0
DWIDTH 10 0
BBX 9 15 1 0
BITMAP
000400
007C00
01FD00
00E000
000000
469000
EFF800
FFFE00
F82F00
F40F40
F40F40
F40F40
F40F40
F40F40
F40F40
ENDCHAR
STARTCHAR Ncommaaccent
ENCODING 325
SWIDTH 689 0
DWIDTH 12 0
BBX 11 18 1 -5
BITMAP
A800A0
BE01F4
BF01F4
BF81F4
BFD1F4
BAF1F4
B9F5F4
B8BDF4
B83FF4
B82FF4
B80FF4
B807F4
B802F4
000000
00B400
00F400
007000
001000
ENDCHAR
STARTCHAR ncommaaccent
ENCODING 326
SWIDTH 562 0
DWIDTH 10 0
BBX 9 15 1 -5
BITMAP
469000
EFF800
FFFE00
F82F00
F40F40
F40F40
F40F40
F40F40
F40F40
F40F40
000000
03C000
03D000
01C000
014000
ENDCHAR
STARTCHAR Ncaron
ENCODING 327
SWIDTH 689 0
DWIDTH 12 0
BBX 11 17 1 0
BITMAP
010400
03ED00
01F800
001000
A800A0
BE01F4
BF01F4
BF81F4
BFD1F4
BAF1F4
B9F5F4
B8BDF4
B83FF4
B82FF4
B80FF4
B807F4
B802F4
ENDCHAR
STARTCHAR ncaron
ENCODING 328
SWIDTH 562 0
DWIDTH 10 0
BBX 9 14 1 0
BITMAP
041000
0FB400
07D000
014000
469000
EFF800
FFFE00
F82F00
F40F40
F40F40
F40F40
F40F40
F40F40
F40F40
ENDCHAR
STARTCHAR napostrophe
ENCODING 329
SWIDTH 694 0
DWIDTH 13 0
BBX 12 13 0 0
BITMAP
600000
F40000
740000
610640
02BFF4
02FFFC
02F47E
02E02E
02E02E
02E02E
02E02E
02E02E
02E02E
ENDCHAR
STARTCHAR Eng
ENCODING 330
SWIDTH 689 0
DWIDTH 12 0
BBX 11 17 1 -4
BITMAP
A800A0
BE01F4
BF01F4
BF81F4
BFD1F4
BBF1F4
B9F5F4
B8BDF4
B83FF4
B82FF4
B80FF4
B807F4
B802F0
0007E0
00FFD0
00FF40
00A400
ENDCHAR
STARTCHAR eng
ENCODING 331
SWIDTH 562 0
DWIDTH 10 0
BBX 9 14 1 -4
BITMAP
469000
EFF800
FFFE00
F82F00
F40F40
F40F40
F40F40
F40F40
F40F40
F41F40
002F00
0AFD00
0BF400
064000
ENDCHAR
STARTCHAR Omacron
ENCODING 332
SWIDTH 777 0
DWIDTH 14 0
BBX 14 17 0 -1
BITMAP
00154000
007FD000
00154000
006A9000
02FFF800
0BFAFE00
2F802F80
3E000BC0
7D0007D0
7C0003D0
7C0003D0
7D0007D0
3F401FC0
1FE5BF40
07FFFD00
01BFE400
00050000
ENDCHAR
STARTCHAR omacron
ENCODING 333
SWIDTH 579 0
DWIDTH 10 0
BBX 10 13 0 0
BITMAP
015500
03FD00
015400
01A900
0FFF40
2FAFD0
7D03E0
BC02F0
BC01F0
7D02E0
3F5BD0
1FFF80
07FE00
ENDCHAR
STARTCHAR Obreve
ENCODING 334
SWIDTH 777 0
DWIDTH 14 0
BBX 14 18 0 -1
BITMAP
00104000
003AC000
002F8000
00050000
006A9000
02FFF800
0BFAFE00
2F802F80
3E000BC0
7D0007D0
7C0003D0
7C0003D0
7D0007D0
3F401FC0
1FE5BF40
07FFFD00
01BFE400
00050000
ENDCHAR
STARTCHAR obreve
ENCODING 335
SWIDTH 579 0
DWIDTH 10 0
BBX 10 14 0 0
BITMAP
004400
02ED00
01FC00
001000
01A900
0FFF40
2FAFD0
7D03E0
BC02F0
BC01F0
7D02E0
3F5BD0
1FFF80
07FE00
ENDCHAR
STARTCHAR Ohungarumlaut
ENCODING 336
SWIDTH 777 0
DWIDTH 14 0
BBX 14 19 0 -1
BITMAP
00040000
001E2400
003EBC00
0079F400
00108000
006A9000
02FFF800
0BFAFE00
2F802F80
3E000BC0
7D0007D0
7C0003D0
7C0003D0
7D0007D0
3F401FC0
1FE5BF40
07FFFD00
01BFE400
00050000
ENDCHAR
STARTCHAR ohungarumlaut
ENCODING 337
SWIDTH 579 0
DWIDTH 10 0
BBX 10 15 0 0
BITMAP
004000
00E240
02FBD0
039F40
010900
01A900
0FFF40
2FAFD0
7D03E0
BC02F0
BC01F0
7D02E0
3F5BD0
1FFF80
07FE00
ENDCHAR
STARTCHAR OE
ENCODING 338
SWIDTH 1125 0
DWIDTH 20 0
BBX 20 14 0 -1
BITMAP
006A92AAA9
02FFFBFFFE
0BFAFFFFFE
2F802FE000
3E000BE000
7D0007EA90
7C0003FFE0
7C0003FFE0
7D0007E000
3F401FE000
1FE5BFEAA9
07FFFFFFFE
01BFE7FFFE
0005000000
ENDCHAR
STARTCHAR oe
ENCODING 339
SWIDTH 924 0
DWIDTH 17 0
BBX 16 10 0 0
BITMAP
01A906A4
0FFF6FFE
2FAFFFBF
7D03F87D
BC02F5F8
BC01F3E0
7D02FF84
3F5BFF6E
1FFFBFFF
07FE1BF8
ENDCHAR
STARTCHAR Racute
ENCODING 340
SWIDTH 651 0
DWIDTH 12 0
BBX 11 17 1 0
BITMAP
000400
002D00
00BD00
00A000
AAA400
BFFF40
BFFFD0
B807E0
B802F0
B801F4
B802F0
B807E0
BFFFD0
BFFF40
BD6F40
B80F80
B80BC0
ENDCHAR
STARTCHAR racute
ENCODING 341
SWIDTH 414 0
DWIDTH 7 0
BBX 7 14 1 0
BITMAP
0040
02D0
0BE0
0A40
4150
EFF4
FFF4
FD00
F400
F400
F400
F400
F400
F400
ENDCHAR
STARTCHAR Rcommaaccent
ENCODING 342
SWIDTH 651 0
DWIDTH 12 0
BBX 11 18 1 -5
BITMAP
AAA400
BFFF40
BFFFD0
B807E0
B802F0
B801F4
B802F0
B807E0
BFFFD0
BFFF40
BD6F40
B80F80
B80BC0
000000
00F000
01F000
00A000
005000
ENDCHAR
STARTCHAR rcommaaccent
ENCODING 343
SWIDTH 414 0
DWIDTH 7 0
BBX 7 15 1 -5
BITMAP
4150
EFF4
FFF4
FD00
F400
F400
F400
F400
F400
F400
0000
F000
F400
7000
1000
ENDCHAR
STARTCHAR Rcaron
ENCODING 344
SWIDTH 651 0
DWIDTH 12 0
BBX 11 17 1 0
BITMAP
010400
07BC00
01F400
005000
AAA400
BFFF40
BFFFD0
B807E0
B802F0
B801F4
B802F0
B807E0
BFFFD0
BFFF40
BD6F40
B80F80
B80BC0
ENDCHAR
STARTCHAR rcaron
ENCODING 345
SWIDTH 414 0
DWIDTH 7 0
BBX 7 14 1 0
BITMAP
1140
7BC0
2F40
0500
4150
EFF4
FFF4
FD00
F400
F400
F400
F400
F400
F400
ENDCHAR
STARTCHAR Sacute
ENCODING 346
SWIDTH 610 0
DWIDTH 11 0
BBX 11 18 0 0
BITMAP
000100
000B40
002F40
002800
000000
02AAA0
1FFFF0
3FFFF0
7D0000
BC0000
7EA900
2FFFD0
07FFF0
0001F4
0000F4
1AAAF4
3FFFE0
3FFF40
ENDCHAR
STARTCHAR sacute
ENCODING 347
SWIDTH 523 0
DWIDTH 9 0
BBX 9 14 0 0
BITMAP
000400
002E00
00BE00
007400
015540
1FFF40
3FFF40
7C0000
7FA900
2FFF80
06ABC0
155BC0
7FFF80
7FFE00
ENDCHAR
STARTCHAR Scircumflex
ENCODING 348
SWIDTH 610 0
DWIDTH 11 0
BBX 11 17 0 0
BITMAP
001000
00B800
02FE00
018900
02AAA0
1FFFF0
3FFFF0
7D0000
BC0000
7EA900
2FFFD0
07FFF0
0001F4
0000F4
1AAAF4
3FFFE0
3FFF40
ENDCHAR
STARTCHAR scircumflex
ENCODING 349
SWIDTH 523 0
DWIDTH 9 0
BBX 9 14 0 0
BITMAP
004000
01E000
07F800
021400
015540
1FFF40
3FFF40
7C0000
7FA900
2FFF80
06ABC0
155BC0
7FFF80
7FFE00
ENDCHAR
STARTCHAR Scedilla
ENCODING 350
SWIDTH 610 0
DWIDTH 11 0
BBX 11 17 0 -4
BITMAP
02AAA0
1FFFF0
3FFFF0
7D0000
BC0000
7EA900
2FFFD0
07FFF0
0001F4
0000F4
1AAAF4
3FFFE0
3FFF40
003400
006C00
00AD00
00F800
ENDCHAR
STARTCHAR scedilla
ENCODING 351
SWIDTH 523 0
DWIDTH 9 0
BBX 9 14 0 -4
BITMAP
015540
1FFF40
3FFF40
7C0000
7FA900
2FFF80
06ABC0
155BC0
7FFF80
7FFE00
009000
00B400
02B800
02F000
ENDCHAR
STARTCHAR Scaron
ENCODING 352
SWIDTH 610 0
DWIDTH 11 0
BBX 11 17 0 0
BITMAP
004400
02EE00
00B800
002000
02AAA0
1FFFF0
3FFFF0
7D0000
BC0000
7EA900
2FFFD0
07FFF0
0001F4
0000F4
1AAAF4
3FFFE0
3FFF40
ENDCHAR
STARTCHAR scaron
ENCODING 353
SWIDTH 523 0
DWIDTH 9 0
BBX 9 14 0 0
BITMAP
010400
07BC00
01F400
005000
015540
1FFF40
3FFF40
7C0000
7FA900
2FFF80
06ABC0
155BC0
7FFF80
7FFE00
ENDCHAR
STARTCHAR Tcommaaccent
ENCODING 354
SWIDTH 578 0
DWIDTH 10 0
BBX 11 18 0 -5
BITMAP
AAAAA0
FFFFF4
BFFFF4
00F400
00F400
00F400
00F400
00F400
00F400
00F400
00F400
00F400
00F400
000000
00B400
00F400
007000
001000
ENDCHAR
STARTCHAR tcommaaccent
ENCODING 355
SWIDTH 437 0
DWIDTH 8 0
BBX 8 18 0 -5
BITMAP
2E00
2E00
2E00
6F55
BFFD
BFFD
2E00
2E00
2E00
1F00
1F95
0BFD
01BD
0000
03C0
03C0
01C0
0140
ENDCHAR
STARTCHAR Tcaron
ENCODING 356
SWIDTH 578 0
DWIDTH 10 0
BBX 11 17 0 0
BITMAP
010400
03ED00
01F800
005000
AAAAA0
FFFFF4
BFFFF4
00F400
00F400
00F400
00F400
00F400
00F400
00F400
00F400
00F400
00F400
ENDCHAR
STARTCHAR tcaron
ENCODING 357
SWIDTH 570 0
DWIDTH 10 0
BBX 11 13 0 0
BITMAP
2E0050
2E00F4
2E00B0
6F5560
BFFD00
BFFD00
2E0000
2E0000
2E0000
1F0000
1F9500
0BFD00
01BD00
ENDCHAR
STARTCHAR Tbar
ENCODING 358
SWIDTH 578 0
DWIDTH 10 0
BBX 11 13 0 0
BITMAP
AAAAA0
FFFFF4
BFFFF4
00F400
00F400
00F400
06F900
0BFF00
07FE00
00F400
00F400
00F400
00F400
ENDCHAR
STARTCHAR tbar
ENCODING 359
SWIDTH 437 0
DWIDTH 8 0
BBX 8 13 0 0
BITMAP
2E00
2E00
2E00
6F55
BFFD
BFFD
2E00
BFE0
BFE0
2F40
1F95
07FD
01BD
ENDCHAR
STARTCHAR Utilde
ENCODING 360
SWIDTH 673 0
DWIDTH 12 0
BBX 10 17 1 0
BITMAP
014500
0BEF00
0BBE00
061400
A401A0
F801F0
F801F0
F801F0
F801F0
F801F0
F801F0
F801F0
F802F0
BD03F0
7FAFD0
1FFF80
06F900
ENDCHAR
STARTCHAR utilde
ENCODING 361
SWIDTH 562 0
DWIDTH 10 0
BBX 10 14 0 0
BITMAP
014500
0BEF00
0BBE00
061400
140140
7D07D0
7D07D0
7D07D0
7D07D0
7D07D0
3D07D0
3F5FD0
1FFFD0
07F990
ENDCHAR
STARTCHAR Umacron
ENCODING 362
SWIDTH 673 0
DWIDTH 12 0
BBX 10 16 1 0
BITMAP
015400
07FD00
015400
A401A0
F801F0
F801F0
F801F0
F801F0
F801F0
F801F0
F801F0
F802F0
BD03F0
7FAFD0
1FFF80
06F900
ENDCHAR
STARTCHAR umacron
ENCODING 363
SWIDTH 562 0
DWIDTH 10 0
BBX 10 13 0 0
BITMAP
015400
07FD00
015400
140140
7D07D0
7D07D0
7D07D0
7D07D0
7D07D0
3D07D0
3F5FD0
1FFFD0
07F990
ENDCHAR
STARTCHAR Ubreve
ENCODING 364
SWIDTH 673 0
DWIDTH 12 0
BBX 10 16 1 0
BITMAP
000400
02AC00
01F800
A451A0
F801F0
F801F0
F801F0
F801F0
F801F0
F801F0
F801F0
F802F0
BD03F0
7FAFD0
1FFF80
06F900
ENDCHAR
STARTCHAR ubreve
ENCODING 365
SWIDTH 562 0
DWIDTH 10 0
BBX 10 13 0 0
BITMAP
010400
03AC00
02F800
145140
7D07D0
7D07D0
7D07D0
7D07D0
7D07D0
3D07D0
3F5FD0
1FFFD0
07F990
ENDCHAR
STARTCHAR Uring
ENCODING 366
SWIDTH 673 0
DWIDTH 12 0
BBX 10 17 1 0
BITMAP
00A000
02A800
02A800
00A000
A401A0
F801F0
F801F0
F801F0
F801F0
F801F0
F801F0
F801F0
F802F0
BD03F0
7FAFD0
1FFF80
06F900
ENDCHAR
STARTCHAR uring
ENCODING 367
SWIDTH 562 0
DWIDTH 10 0
BBX 10 14 0 0
BITMAP
00A000
02A800
02A800
00A000
140140
7D07D0
7D07D0
7D07D0
7D07D0
7D07D0
3D07D0
3F5FD0
1FFFD0
07F990
ENDCHAR
STARTCHAR Uhungarumlaut
ENCODING 368
SWIDTH 673 0
DWIDTH 12 0
BBX 10 18 1 0
BITMAP
004000
00E240
02EBC0
079F40
010900
A401A0
F801F0
F801F0
F801F0
F801F0
F801F0
F801F0
F801F0
F802F0
BD03F0
7FAFD0
1FFF80
06F900
ENDCHAR
STARTCHAR uhungarumlaut
ENCODING 369
SWIDTH 562 0
DWIDTH 10 0
BBX 10 15 0 0
BITMAP
004000
00E240
02EBC0
079F40
010900
140140
7D07D0
7D07D0
7D07D0
7D07D0
7D07D0
3D07D0
3F5FD0
1FFFD0
07F990
ENDCHAR
STARTCHAR Uogonek
ENCODING 370
SWIDTH 673 0
DWIDTH 12 0
BBX 10 16 1 -3
BITMAP
A401A0
F801F0
F801F0
F801F0
F801F0
F801F0
F801F0
F801F0
F802F0
BD03E0
7FAFD0
1FFF80
06F900
01C000
03E400
02F400
ENDCHAR
STARTCHAR uogonek
ENCODING 371
SWIDTH 562 0
DWIDTH 10 0
BBX 11 13 0 -3
BITMAP
140140
7D07D0
7D07D0
7D07D0
7D07D0
7D07D0
3D07D0
3F5FD0
1FFFD0
07F9D0
0002C0
0003A0
0002F4
ENDCHAR
STARTCHAR Wcircumflex
ENCODING 372
SWIDTH 819 0
DWIDTH 15 0
BBX 13 17 1 0
BITMAP
00040000
002D0000
00BF4000
00524000
A4290A40
F83E0F80
F83E0F80
F83E0F80
F83E0F80
F83E0F80
F83E0F80
F83E0F80
F83E0F80
F83E0F80
BDBF6F40
7FFFFF00
1FE7F800
ENDCHAR
STARTCHAR wcircumflex
ENCODING 373
SWIDTH 756 0
DWIDTH 14 0
BBX 13 14 0 0
BITMAP
00040000
001E0000
007FC000
00218000
14050540
7D1F0B80
7D1F0B80
7D1F0B80
7D1F0B80
7D1F0B80
3D1F0B80
3E6F9F80
2FFFFF40
0BF6FD00
ENDCHAR
STARTCHAR Ycircumflex
ENCODING 374
SWIDTH 620 0
DWIDTH 11 0
BBX 11 17 0 0
BITMAP
001000
00B800
02FE00
018900
6800A4
7C00F8
7C00F8
7C00F8
7C00F8
7D01F4
2F9BF0
1FFFD0
06FE40
00BC00
00BC00
00BC00
00BC00
ENDCHAR
STARTCHAR ycircumflex
ENCODING 375
SWIDTH 562 0
DWIDTH 10 0
BBX 10 18 0 -4
BITMAP
001000
01F400
03FD00
024800
140140
7D07D0
7D07D0
7D07D0
7D07D0
7D07D0
3D07D0
3F5FD0
1FFFD0
07FFC0
001FC0
02FF40
02FD00
019000
ENDCHAR
STARTCHAR Ydieresis
ENCODING 376
SWIDTH 620 0
DWIDTH 11 0
BBX 11 16 0 0
BITMAP
028600
03CF40
014500
6800A4
7C00F8
7C00F8
7C00F8
7C00F8
7D01F4
2F9BF0
1FFFD0
06FE40
00BC00
00BC00
00BC00
00BC00
ENDCHAR
STARTCHAR Zacute
ENCODING 377
SWIDTH 586 0
DWIDTH 11 0
BBX 11 17 0 0
BITMAP
000100
000F00
003F40
003800
6AAAA0
BFFFE0
BFFFC0
002F80
003F00
00BD00
00FC00
02F400
07F000
0BD000
1FEAA0
2FFFF4
7FFFF4
ENDCHAR
STARTCHAR zacute
ENCODING 378
SWIDTH 481 0
DWIDTH 9 0
BBX 9 14 0 0
BITMAP
000400
003C00
00FD00
00E000
555500
BFFE00
BFFD00
00F800
01F000
03D000
0BC000
1F9500
2FFF40
7FFF40
ENDCHAR
STARTCHAR Zdotaccent
ENCODING 379
SWIDTH 586 0
DWIDTH 11 0
BBX 11 16 0 0
BITMAP
007000
00B400
001000
6AAAA0
BFFFE0
BFFFC0
002F80
003F00
00BD00
00FC00
02F400
07F000
0BD000
1FEAA0
2FFFF4
7FFFF4
ENDCHAR
STARTCHAR zdotaccent
ENCODING 380
SWIDTH 481 0
DWIDTH 9 0
BBX 9 13 0 0
BITMAP
01D000
02D000
004000
555500
BFFE00
BFFD00
00F800
01F000
03D000
0BC000
1F9500
2FFF40
7FFF40
ENDCHAR
STARTCHAR Zcaron
ENCODING 381
SWIDTH 586 0
DWIDTH 11 0
BBX 11 17 0 0
BITMAP
014400
03ED00
01F800
002000
6AAAA0
BFFFE0
BFFFC0
002F80
003F00
00BD00
00FC00
02F400
07F000
0BD000
1FEAA0
2FFFF4
7FFFF4
ENDCHAR
STARTCHAR zcaron
ENCODING 382
SWIDTH 481 0
DWIDTH 9 0
BBX 9 14 0 0
BITMAP
051000
0FB400
03E000
008000
555500
BFFE00
BFFD00
00F800
01F000
03D000
0BC000
1F9500
2FFF40
7FFF40
ENDCHAR
STARTCHAR AEacute
ENCODING 508
SWIDTH 988 0
DWIDTH 18 0
BBX 17 17 1 0
BITMAP
0000040000
00002D0000
0000BD0000
0000A00000
01AAAAAA00
1FFFFFFF40
3FFFFFFF40
BE01F00000
F801F00000
F801FAA000
F801FFF400
F801FFF400
FFFFF00000
FFFFF00000
F956FAAA00
F801FFFF40
F801FFFF40
ENDCHAR
STARTCHAR aeacute
ENCODING 509
SWIDTH 976 0
DWIDTH 18 0
BBX 17 14 0 0
BITMAP
0000010000
00000F0000
00003F4000
0000380000
01A811A900
0FFFBFFF80
2FAFFFEFC0
7D07FE2F40
BC02FC7D00
BC01FCF800
7D02FFE100
3F5BFFDB80
1FFFFFFFC0
07FD36FE00
ENDCHAR
STARTCHAR Oslashacute
ENCODING 510
SWIDTH 777 0
DWIDTH 14 0
BBX 14 19 0 -1
BITMAP
00004000
0001E000
000BE000
00074000
00000000
006A9A40
02FFFF00
0BFAFF00
2F80BF80
3E02EBC0
7D07C7D0
7C0F43D0
7C2E03D0
7DBC07D0
3FF41FC0
1FE5BF40
0BFFFD00
1FBFE400
00050000
ENDCHAR
STARTCHAR oslashacute
ENCODING 511
SWIDTH 579 0
DWIDTH 10 0
BBX 10 15 0 0
BITMAP
000100
001F00
007F40
003800
000000
01A990
0FFFD0
2FAFD0
7D2FE0
BC7EF0
BDF5F0
7FE2E0
3FDBD0
2FFF80
7FFE00
ENDCHAR
STARTCHAR dotlessj
ENCODING 567
SWIDTH 237 0
DWIDTH 4 0
BBX 7 14 -3 -4
BITMAP
0050
00F4
00F4
00F4
00F4
00F4
00F4
00F4
00F4
01F4
02F0
AFD0
BF80
6400
ENDCHAR
STARTCHAR circumflex
ENCODING 710
SWIDTH 267 0
DWIDTH 5 0
BBX 5 4 0 9
BITMAP
0400
2D00
BF80
6240
ENDCHAR
STARTCHAR caron
ENCODING 711
SWIDTH 267 0
DWIDTH 5 0
BBX 5 4 0 9
BITMAP
5100
BB80
3E00
0800
ENDCHAR
STARTCHAR breve
ENCODING 728
SWIDTH 220 0
DWIDTH 4 0
BBX 4 4 0 9
BITMAP
40
EB
BE
14
ENDCHAR
STARTCHAR dotaccent
ENCODING 729
SWIDTH 125 0
DWIDTH 2 0
BBX 2 3 0 9
BITMAP
A0
F0
10
ENDCHAR
STARTCHAR ring
ENCODING 730
SWIDTH 192 0
DWIDTH 3 0
BBX 4 4 0 9
BITMAP
64
ED
ED
68
ENDCHAR
STARTCHAR ogonek
ENCODING 731
SWIDTH 212 0
DWIDTH 4 0
BBX 4 4 0 -3
BITMAP
14
B0
F8
BD
ENDCHAR
STARTCHAR tilde
ENCODING 732
SWIDTH 321 0
DWIDTH 6 0
BBX 6 4 0 9
BITMAP
1450
BDE0
FBE0
5140
ENDCHAR
STARTCHAR hungarumlaut
ENCODING 733
SWIDTH 384 0
DWIDTH 7 0
BBX 7 5 0 9
BITMAP
0400
2D60
7EF8
B6E0
1180
ENDCHAR
STARTCHAR uni0312
ENCODING 786
SWIDTH 192 0
DWIDTH 3 0
BBX 3 4 0 9
BITMAP
30
78
7C
10
ENDCHAR
STARTCHAR uni0315
ENCODING 789
SWIDTH 132 0
DWIDTH 2 0
BBX 3 4 0 9
BITMAP
60
F4
74
60
ENDCHAR
STARTCHAR uni0326
ENCODING 806
SWIDTH 193 0
DWIDTH 3 0
BBX 3 4 0 -5
BITMAP
78
7C
28
10
ENDCHAR
STARTCHAR pi
ENCODING 960
SWIDTH 555 0
DWIDTH 10 0
BBX 10 10 0 0
BITMAP
555550
BFFFE0
BFFFE0
1F5F40
1F5F40
1F5F40
1F5F40
1F5F40
1F5F40
1F5F40
ENDCHAR
STARTCHAR Wgrave
ENCODING 7808
SWIDTH 819 0
DWIDTH 15 0
BBX 13 17 1 0
BITMAP
00400000
01E00000
02F80000
00680000
A4290A40
F83E0F80
F83E0F80
F83E0F80
F83E0F80
F83E0F80
F83E0F80
F83E0F80
F83E0F80
F83E0F80
BDBF6F40
7FFFFF00
1FE7F800
ENDCHAR
STARTCHAR wgrave
ENCODING 7809
SWIDTH 756 0
DWIDTH 14 0
BBX 13 14 0 0
BITMAP
00400000
01E00000
01F80000
00280000
14050540
7D1F0B80
7D1F0B80
7D1F0B80
7D1F0B80
7D1F0B80
3D1F0B80
3E6F9F80
2FFFFF40
0BF6FD00
ENDCHAR
STARTCHAR Wacute
ENCODING 7810
SWIDTH 819 0
DWIDTH 15 0
BBX 13 17 1 0
BITMAP
00004000
0003C000
000FD000
000E0000
A4290A40
F83E0F80
F83E0F80
F83E0F80
F83E0F80
F83E0F80
F83E0F80
F83E0F80
F83E0F80
F83E0F80
BDBF6F40
7FFFFF00
1FE7F800
ENDCHAR
STARTCHAR wacute
ENCODING 7811
SWIDTH 756 0
DWIDTH 14 0
BBX 13 14 0 0
BITMAP
00004000
0001E000
0007E000
00074000
14050540
7D1F0B80
7D1F0B80
7D1F0B80
7D1F0B80
7D1F0B80
3D1F0B80
3E6F9F80
2FFFFF40
0BF6FD00
ENDCHAR
STARTCHAR Wdieresis
ENCODING 7812
SWIDTH 819 0
DWIDTH 15 0
BBX 13 16 1 0
BITMAP
00928000
01F3C000
00514000
A4290A40
F83E0F80
F83E0F80
F83E0F80
F83E0F80
F83E0F80
F83E0F80
F83E0F80
F83E0F80
F83E0F80
BDBF6F40
7FFFFF00
1FE7F800
ENDCHAR
STARTCHAR wdieresis
ENCODING 7813
SWIDTH 756 0
DWIDTH 14 0
BBX 13 13 0 0
BITMAP
00618000
00B6D000
00504000
14050540
7D1F0B80
7D1F0B80
7D1F0B80
7D1F0B80
7D1F0B80
3D1F0B80
3E6F9F80
2FFFFF40
0BF6FD00
ENDCHAR
STARTCHAR Ygrave
ENCODING 7922
SWIDTH 620 0
DWIDTH 11 0
BBX 11 17 0 0
BITMAP
010000
0B4000
0BE000
01D000
6800A4
7C00F8
7C00F8
7C00F8
7C00F8
7D01F4
2F9BF0
1FFFD0
06FE40
00BC00
00BC00
00BC00
00BC00
ENDCHAR
STARTCHAR ygrave
ENCODING 7923
SWIDTH 562 0
DWIDTH 10 0
BBX 10 18 0 -4
BITMAP
040000
1E0000
1F8000
028000
140140
7D07D0
7D07D0
7D07D0
7D07D0
7D07D0
3D07D0
3F5FD0
1FFFD0
07FFC0
001FC0
02FF40
02FD00
019000
ENDCHAR
STARTCHAR endash
ENCODING 8211
SWIDTH 418 0
DWIDTH 8 0
BBX 6 3 1 5
BITMAP
AA90
FFD0
AA90
ENDCHAR
STARTCHAR emdash
ENCODING 8212
SWIDTH 719 0
DWIDTH 13 0
BBX 11 3 1 5
BITMAP
AAAAA8
FFFFFC
AAAAA8
ENDCHAR
STARTCHAR quoteleft
ENCODING 8216
SWIDTH 246 0
DWIDTH 4 0
BBX 4 5 0 8
BITMAP
04
28
3D
7E
2D
ENDCHAR
STARTCHAR quoteright
ENCODING 8217
SWIDTH 245 0
DWIDTH 4 0
BBX 4 5 0 8
BITMAP
18
7E
3E
1D
18
ENDCHAR
STARTCHAR quotesinglbase
ENCODING 8218
SWIDTH 264 0
DWIDTH 5 0
BBX 3 5 1 -2
BITMAP
10
F8
FC
78
74
ENDCHAR
STARTCHAR quotedblleft
ENCODING 8220
SWIDTH 445 0
DWIDTH 8 0
BBX 8 5 0 8
BITMAP
0410
2834
3D78
7EBD
2D7C
ENDCHAR
STARTCHAR quotedblright
ENCODING 8221
SWIDTH 444 0
DWIDTH 8 0
BBX 8 5 0 8
BITMAP
1824
7EBD
3EBD
1D2C
1824
ENDCHAR
STARTCHAR quotedblbase
ENCODING 8222
SWIDTH 463 0
DWIDTH 8 0
BBX 7 5 1 -2
BITMAP
1050
F9F4
FDF4
78B4
74A0
ENDCHAR
STARTCHAR dagger
ENCODING 8224
SWIDTH 434 0
DWIDTH 8 0
BBX 8 17 0 -2
BITMAP
0140
07D0
07D0
07D0
7FFD
7FFD
1BD4
07D0
07D0
07D0
07D0
07D0
07D0
07D0
07D0
07D0
0680
ENDCHAR
STARTCHAR daggerdbl
ENCODING 8225
SWIDTH 452 0
DWIDTH 8 0
BBX 8 17 0 -2
BITMAP
0140
07D0
07D0
07D0
7FFD
7FFD
17D4
07D0
07D0
07D0
07D0
7FFD
7FFD
1BE5
07D0
07D0
0290
ENDCHAR
STARTCHAR bullet
ENCODING 8226
SWIDTH 354 0
DWIDTH 6 0
BBX 4 5 1 4
BITMAP
14
7E
BF
7E
14
ENDCHAR
STARTCHAR ellipsis
ENCODING 8230
SWIDTH 789 0
DWIDTH 14 0
BBX 13 4 1 -1
BITMAP
10140500
F87D1F00
F87E2F40
60180900
ENDCHAR
STARTCHAR perthousand
ENCODING 8240
SWIDTH 998 0
DWIDTH 18 0
BBX 18 13 0 0
BITMAP
0A40640000
3FD0F00000
78E1E00000
74E3C00000
79E7400000
2FDF000000
066D000000
0039F82F40
00B7ED7AC0
01E74EB1D0
02C74EB1D0
0783ED7BC0
0F01F82F40
ENDCHAR
STARTCHAR guilsinglleft
ENCODING 8249
SWIDTH 403 0
DWIDTH 7 0
BBX 7 9 0 0
BITMAP
00A0
02F4
0BD0
2F40
7E00
2F80
07E0
01F4
0050
ENDCHAR
STARTCHAR guilsinglright
ENCODING 8250
SWIDTH 402 0
DWIDTH 7 0
BBX 6 9 1 0
BITMAP
7000
FC00
7E00
1F80
07E0
1F80
7E00
F800
6000
ENDCHAR
STARTCHAR fraction
ENCODING 8260
SWIDTH 477 0
DWIDTH 9 0
BBX 9 13 0 0
BITMAP
000640
000B00
001E00
003C00
007400
00F000
02D000
038000
0B4000
1E0000
2C0000
780000
F00000
ENDCHAR
STARTCHAR Euro
ENCODING 8364
SWIDTH 806 0
DWIDTH 15 0
BBX 14 14 0 -1
BITMAP
0001A900
001FFFD0
007FEFD0
00FD0180
1FFFC000
2FFF8000
17E54000
2BFA4000
7FFF0000
16FD0040
00BE56C0
002FFFE0
0007FF80
00005400
ENDCHAR
STARTCHAR trademark
ENCODING 8482
SWIDTH 606 0
DWIDTH 11 0
BBX 9 5 1 8
BITMAP
A96640
699D80
248C80
248C80
248880
ENDCHAR
STARTCHAR partialdiff
ENCODING 8706
SWIDTH 609 0
DWIDTH 11 0
BBX 11 14 0 0
BITMAP
00A800
007D00
002F00
000F80
01AFC0
0BFFD0
2FEFE0
3E02F0
7D01F0
7C01F4
7D02F0
2F5BE0
1FFFC0
06FE00
ENDCHAR
STARTCHAR product
ENCODING 8719
SWIDTH 632 0
DWIDTH 11 0
BBX 11 13 0 0
BITMAP
6AAAA4
7FFFF8
7FFFF8
0B87C0
0B87C0
0B87C0
0B87C0
0B87C0
0B87C0
0B87C0
0B87C0
0B87C0
0B87C0
ENDCHAR
STARTCHAR minus
ENCODING 8722
SWIDTH 543 0
DWIDTH 10 0
BBX 8 3 1 5
BITMAP
6AA9
BFFE
AAA9
ENDCHAR
STARTCHAR infinity
ENCODING 8734
SWIDTH 771 0
DWIDTH 14 0
BBX 13 8 0 2
BITMAP
07E1B900
1FFFFF40
3EBFAFC0
7D1F07C0
7D1F47C0
3FAFDFC0
1FFFFF40
07E5BD00
ENDCHAR
STARTCHAR approxequal
ENCODING 8776
SWIDTH 476 0
DWIDTH 9 0
BBX 7 8 1 2
BITMAP
6974
BFF4
F7F0
5040
7D74
FFF4
B6F0
5040
ENDCHAR
STARTCHAR notequal
ENCODING 8800
SWIDTH 512 0
DWIDTH 9 0
BBX 8 12 1 0
BITMAP
0064
00F4
55F4
FFFD
FFFD
07C0
AFE9
FFFD
BFA9
3D00
7C00
1400
ENDCHAR
STARTCHAR fi
ENCODING 64257
SWIDTH 650 0
DWIDTH 12 0
BBX 11 14 0 0
BITMAP
01BE24
07FEFC
0FD5FC
1F0064
6F5554
BFFFF8
BFFFF8
1F00B8
1F00B8
1F00B8
1F00B8
1F00B8
1F00B8
1F00B8
ENDCHAR
STARTCHAR fl
ENCODING 64258
SWIDTH 631 0
DWIDTH 11 0
BBX 11 14 0 0
BITMAP
01BFF4
07FFF4
0FD5F4
1F00F4
6F54F4
BFFCF4
BFFCF4
1F00F4
1F00F4
1F00F4
1F00F4
1F00F4
1F00F4
1F00F4
ENDCHAR
STARTCHAR .notdef
ENCODING -1
SWIDTH 279 0
DWIDTH 5 0
BBX 1 1 0 0
BITMAP
00
ENDCHAR
STARTCHAR .null
ENCODING -1
SWIDTH 0 0
DWIDTH 0 0
BBX 1 1 0 0
BITMAP
00
ENDCHAR
STARTCHAR nonmarkingreturn
ENCODING -1
SWIDTH 279 0
DWIDTH 5 0
BBX 1 1 0 0
BITMAP
00
ENDCHAR
ENDFONT
